<svg width="42" height="42" viewBox="0 0 42 42" fill="none" xmlns="http://www.w3.org/2000/svg">
<path fill-rule="evenodd" clip-rule="evenodd" d="M4.64497 27.5838V23.5522C4.64497 23.1839 4.94384 22.8854 5.30955 22.8854H20.3319V19.7493C20.3319 19.3814 20.6308 19.0829 21.0005 19.0829C21.3702 19.0829 21.665 19.3813 21.665 19.7493V22.8854H36.6912C37.057 22.8854 37.3558 23.1837 37.3558 23.5522V27.5838C37.3558 27.9521 37.057 28.2506 36.6912 28.2506C36.3216 28.2506 36.0227 27.9523 36.0227 27.5838V24.219H21.6646V27.5838C21.6646 27.9521 21.3697 28.2506 21 28.2506C20.6304 28.2506 20.3315 27.9523 20.3315 27.5838V24.219H5.97763V27.5838C5.97763 27.9521 5.67876 28.2506 5.30906 28.2506C4.94373 28.2506 4.64486 27.9521 4.64486 27.5838H4.64497ZM40.9995 38.6522V34.4438L37.3553 36.5478V40.7551L40.9995 38.6522ZM32.3776 38.6522L36.0218 40.7558V36.5484L32.3776 34.4445V38.6522ZM33.0461 33.2888L36.6903 31.1852L40.3307 33.2888L36.6903 35.3928L33.0461 33.2888ZM9.62239 38.6522V34.4438L5.97819 36.5478V40.7551L9.62239 38.6522ZM1.00049 38.6522L4.64469 40.7558V36.5484L1.00049 34.4445V38.6522ZM1.66507 33.2888L5.30927 31.1852L8.95347 33.2888L5.30927 35.3928L1.66507 33.2888ZM25.309 38.6522V34.4438L21.6648 36.5478V40.7551L25.309 38.6522ZM16.6871 38.6522L20.3313 40.7558V36.5484L16.6871 34.4445V38.6522ZM17.3556 33.2888L20.9998 31.1857L24.644 33.2892L20.9998 35.3932L17.3556 33.2888ZM18.8183 3.54021C18.8183 5.20667 19.8171 6.61503 21 6.61503C22.1795 6.61503 23.178 5.2067 23.178 3.54021C23.178 1.54262 21.8138 1.24414 21 1.24414C20.1863 1.24428 18.8183 1.5426 18.8183 3.54021ZM15.0054 16.1854V10.1055C15.0054 8.77947 16.3323 8.15167 17.4379 7.8673C19.7956 7.26096 22.2014 7.28147 24.5639 7.86771C25.6655 8.14114 26.995 8.78429 26.995 10.1055V16.1854H24.7834V11.4261C24.7834 11.2415 24.6373 11.0928 24.4523 11.0928C24.2677 11.0928 24.1172 11.2411 24.1172 11.4261V16.1854H17.883V11.4261C17.883 11.241 17.7325 11.0928 17.5479 11.0928C17.3633 11.0928 17.2128 11.2411 17.2128 11.4261V16.1854L15.0054 16.1854Z" fill="#681DA8"/>
</svg>
