<svg width="42" height="42" viewBox="0 0 42 42" fill="none" xmlns="http://www.w3.org/2000/svg">
<path d="M37.6454 4.66699H4.35442C3.2485 4.66699 2.33325 5.58224 2.33325 6.68816V30.7507C2.33325 31.8566 3.2485 32.7719 4.35442 32.7719H37.6454C38.7513 32.7719 39.6666 31.8566 39.6666 30.7507V6.68816C39.6666 5.58224 38.7513 4.66699 37.6454 4.66699ZM14.2693 6.76436H27.7306C28.0357 6.76436 28.2645 6.99314 28.2645 7.29827C28.2645 7.6034 28.0357 7.83218 27.7306 7.83218H14.2693C13.9641 7.83218 13.7354 7.6034 13.7354 7.29827C13.7354 6.99314 13.9641 6.76436 14.2693 6.76436ZM8.43476 6.76436C8.73988 6.76436 8.96867 6.99314 8.96867 7.29827C8.96867 7.6034 8.73989 7.83218 8.43476 7.83218C8.12964 7.83218 7.90085 7.6034 7.90085 7.29827C7.90085 6.99314 8.12975 6.76436 8.43476 6.76436ZM6.64252 6.76436C6.94765 6.76436 7.17643 6.99314 7.17643 7.29827C7.17643 7.6034 6.94765 7.83218 6.64252 7.83218C6.3374 7.83218 6.10862 7.6034 6.10862 7.29827C6.10862 6.99314 6.3755 6.76436 6.64252 6.76436ZM4.88839 6.76436C5.19351 6.76436 5.4223 6.99314 5.4223 7.29827C5.4223 7.6034 5.19352 7.83218 4.88839 7.83218C4.58327 7.83218 4.35448 7.6034 4.35448 7.29827C4.35448 6.99314 4.58326 6.76436 4.88839 6.76436ZM38.5989 30.7888C38.5989 31.3227 38.1794 31.7421 37.6455 31.7421H4.35451C3.82061 31.7421 3.40116 31.3227 3.40116 30.7888V9.92949H38.637L38.6371 30.7888H38.5989Z" fill="#174EA6"/>
<path d="M16.4429 23.0477L13.6592 21.1027L16.4429 19.1579L15.4896 17.8232L10.7991 21.1028L15.4896 24.3823L16.4429 23.0477Z" fill="#174EA6"/>
<path d="M24.1841 14.9248H22.3155L17.7776 26.7464H19.6081L24.1841 14.9248Z" fill="#174EA6"/>
<path d="M26.4721 24.3823L31.1626 21.1028L26.4721 17.8232L25.5188 19.1579L28.3025 21.1027L25.5188 23.0477L26.4721 24.3823Z" fill="#174EA6"/>
</svg>
