<svg width="42" height="42" viewBox="0 0 42 42" fill="none" xmlns="http://www.w3.org/2000/svg">
<path d="M22.3244 20.9626V24.4157H23.5688V20.9626C23.5683 19.2932 22.6794 17.7502 21.2356 16.9122C21.8842 16.062 22.191 14.9999 22.0959 13.9348C22.0008 12.8696 21.5103 11.8788 20.7212 11.1571C19.9321 10.4353 18.9016 10.0352 17.8322 10.0352C16.7628 10.0352 15.7323 10.4353 14.9432 11.1571C14.1541 11.8788 13.6636 12.8696 13.5685 13.9348C13.4733 14.9999 13.7802 16.062 14.4288 16.9122C12.9835 17.7496 12.0925 19.2924 12.0894 20.9626V24.4157H13.3337V20.9626C13.3332 20.2983 13.5243 19.648 13.884 19.0896C14.2438 18.5312 14.757 18.0884 15.3621 17.8143L15.5301 17.9139C15.6234 17.9761 15.723 18.0321 15.8163 18.0819C15.903 18.1284 15.9923 18.17 16.0838 18.2063C16.2298 18.2745 16.3794 18.3347 16.5318 18.3868C17.3673 18.6688 18.2723 18.6688 19.1077 18.3868C19.2626 18.3358 19.4143 18.2755 19.5619 18.2063C19.6514 18.1699 19.7386 18.1284 19.8232 18.0819C19.922 18.032 20.0177 17.9759 20.1095 17.9139L20.2837 17.8143C20.8916 18.0859 21.4078 18.5278 21.7699 19.0865C22.1321 19.6452 22.3247 20.2969 22.3245 20.9626H22.3244ZM19.7983 16.6073C18.9552 17.2966 17.813 17.4948 16.7869 17.1299C16.4509 17.0129 16.1389 16.8357 15.866 16.6073C15.2335 16.0678 14.8503 15.2921 14.8063 14.4618C14.7624 13.6315 15.0616 12.8197 15.6337 12.2166C16.2059 11.6133 17.0007 11.2716 17.8322 11.2716C18.6636 11.2716 19.4584 11.6133 20.0306 12.2166C20.6027 12.8197 20.9019 13.6315 20.858 14.4618C20.814 15.2921 20.4309 16.0678 19.7983 16.6073Z" fill="#146C2E"/>
<path d="M8.43083 24.9371C6.88845 22.8806 6.05846 20.3773 6.06649 17.8066C6.07155 15.2481 6.89921 12.759 8.42735 10.7066C9.95536 8.65453 12.1028 7.14832 14.5527 6.40998C17.0025 5.67178 19.6245 5.741 22.032 6.60714L22.4551 5.43742C19.7946 4.48521 16.8985 4.41377 14.194 5.23365C11.4899 6.05365 9.12089 7.72153 7.43748 9.99086C5.7538 12.2603 4.8446 15.0112 4.84424 17.8368C4.84385 20.6625 5.75224 23.4133 7.43515 25.6834L8.43083 24.9371Z" fill="#146C2E"/>
<path d="M30.6369 28.7144L29.8778 29.4734L27.389 26.9847C29.7858 24.5214 31.1255 21.2193 31.1222 17.7825C31.1214 17.0908 31.0674 16.4002 30.9604 15.7168L29.716 15.9159C29.8157 16.533 29.8656 17.1573 29.8654 17.7825C29.8741 20.5506 28.9207 23.2356 27.1683 25.3786C25.4159 27.5216 22.9735 28.9886 20.2588 29.5295L20.4952 30.7739C22.7105 30.3498 24.7772 29.3571 26.4932 27.8932L28.982 30.3819L28.2229 31.141C27.9006 31.4651 27.7198 31.9035 27.7198 32.3605C27.7198 32.8175 27.9006 33.2559 28.2229 33.58L32.7213 38.0847L33.6048 37.2012L29.0878 32.6779C29.0073 32.5869 28.9629 32.4696 28.9629 32.3481C28.9629 32.2267 29.0073 32.1094 29.0878 32.0184L31.5144 29.5918C31.6054 29.5013 31.7284 29.4507 31.8566 29.4507C31.9847 29.4507 32.1078 29.5013 32.1987 29.5918L37.3568 34.7559L38.2403 33.8848L33.0763 28.7208C32.753 28.3977 32.315 28.2157 31.8581 28.2146C31.401 28.2134 30.9623 28.3932 30.6373 28.7145L30.6369 28.7144Z" fill="#146C2E"/>
<path d="M39.0444 5.88672H24.1117C23.9467 5.88672 23.7884 5.95231 23.6718 6.06897C23.5551 6.18563 23.4895 6.3439 23.4895 6.50892V13.9753C23.4895 14.1403 23.5551 14.2985 23.6718 14.4152C23.7884 14.5319 23.9467 14.5975 24.1117 14.5975H39.0444C39.2094 14.5975 39.3676 14.5319 39.4843 14.4152C39.601 14.2985 39.6666 14.1403 39.6666 13.9753V6.50892C39.6666 6.34391 39.601 6.18564 39.4843 6.06897C39.3677 5.95231 39.2094 5.88672 39.0444 5.88672ZM38.4222 13.3531H24.7339V7.13111H38.4222V13.3531Z" fill="#146C2E"/>
<path d="M25.9766 8.375H37.1761V9.61939H25.9766V8.375Z" fill="#146C2E"/>
<path d="M25.9766 10.8633H32.1985V12.1077H25.9766V10.8633Z" fill="#146C2E"/>
<path d="M33.4429 10.8633H37.176V12.1077H33.4429V10.8633Z" fill="#146C2E"/>
<path d="M17.8881 26.4189H2.95545C2.79044 26.4189 2.63217 26.4845 2.5155 26.6012C2.39884 26.7179 2.33325 26.8761 2.33325 27.0411V34.5075C2.33325 34.6725 2.39884 34.8308 2.5155 34.9474C2.63216 35.0641 2.79044 35.1297 2.95545 35.1297H17.8881C18.0531 35.1297 18.2114 35.0641 18.3281 34.9474C18.4447 34.8308 18.5103 34.6725 18.5103 34.5075V27.0411C18.5103 26.8761 18.4447 26.7179 18.3281 26.6012C18.2114 26.4845 18.0531 26.4189 17.8881 26.4189ZM17.2659 33.8853H3.57765V27.6633H17.2659V33.8853Z" fill="#146C2E"/>
<path d="M4.82202 28.9072H16.0215V30.1516H4.82202V28.9072Z" fill="#146C2E"/>
<path d="M4.82202 31.3965H11.044V32.6409H4.82202V31.3965Z" fill="#146C2E"/>
<path d="M12.2883 31.3965H16.0215V32.6409H12.2883V31.3965Z" fill="#146C2E"/>
</svg>
