<svg width="42" height="42" viewBox="0 0 42 42" fill="none" xmlns="http://www.w3.org/2000/svg">
<path d="M38.1756 2.33301H3.8242C3.42879 2.33301 3.04954 2.48751 2.76996 2.76274C2.49025 3.03783 2.33325 3.41102 2.33325 3.80014V27.7438C2.33325 28.1329 2.49027 28.5061 2.76996 28.7812C3.04951 29.0565 3.42876 29.2109 3.8242 29.2109H38.1756C38.5711 29.2109 38.9503 29.0564 39.2299 28.7812C39.5096 28.5061 39.6666 28.1329 39.6666 27.7438V3.80014C39.6666 3.41105 39.5096 3.03786 39.2299 2.76274C38.9503 2.4875 38.5711 2.33301 38.1756 2.33301ZM3.8242 3.3111H38.1756C38.3075 3.3111 38.4339 3.3626 38.5271 3.4543C38.6203 3.546 38.6726 3.67039 38.6726 3.80014V24.7508H23.3755L23.3656 20.8385L22.6201 17.0826C22.9919 16.9014 23.3154 16.6367 23.5644 16.3099C24.3505 15.1084 24.5232 13.6151 24.0315 12.2704C23.7217 11.1803 23.1245 10.19 22.3006 9.39987C21.4769 8.60992 20.4554 8.04795 19.34 7.77119C19.1254 7.72642 18.9062 7.82529 18.8009 8.01465C18.6955 8.204 18.7288 8.43906 18.8828 8.59278C19.7773 9.44372 19.3996 10.2849 18.6541 11.6835C18.291 12.3089 18.0073 12.9757 17.8093 13.6691C17.5861 14.5853 17.7942 15.5517 18.3758 16.3001C18.6698 16.6611 19.0485 16.9463 19.4791 17.1315L18.7436 20.9265V24.7508H3.3272V3.80013C3.3272 3.53009 3.54977 3.3111 3.8242 3.3111ZM20.4334 17.3956C20.6405 17.4277 20.8499 17.4441 21.0596 17.4445C21.266 17.4431 21.4719 17.4268 21.6758 17.3956L22.302 20.5353H19.827L20.4334 17.3956ZM21.5068 27.1178C21.4967 27.2496 21.4331 27.3717 21.3301 27.4565C21.2271 27.5412 21.0937 27.5814 20.9602 27.5678C20.8254 27.5583 20.7 27.4961 20.6123 27.3949C20.5244 27.2939 20.4815 27.1623 20.493 27.0298C20.5031 26.8981 20.5668 26.776 20.6697 26.6911C20.7727 26.6065 20.9061 26.5663 21.0397 26.5799C21.3189 26.6028 21.5275 26.8427 21.5068 27.1178ZM19.7376 23.3717H22.3815V24.7508H19.7376V23.3717ZM29.915 5.54506C29.9316 5.34394 30.0698 5.17262 30.2651 5.11086C30.4601 5.04912 30.6738 5.10918 30.8066 5.26293C30.9392 5.41667 30.9647 5.63399 30.8712 5.8134C30.7776 5.99281 30.5834 6.09918 30.379 6.08298C30.1001 6.06006 29.8926 5.81953 29.915 5.54506ZM32.8969 5.54506C32.9135 5.34394 33.0517 5.17262 33.247 5.11086C33.442 5.04912 33.6557 5.10918 33.7885 5.26293C33.9211 5.41667 33.9466 5.63399 33.8531 5.8134C33.7595 5.99281 33.5653 6.09918 33.3609 6.08298C33.082 6.06006 32.8745 5.81953 32.8969 5.54506ZM35.8788 5.54506C35.8954 5.34394 36.0336 5.17262 36.2288 5.11086C36.4239 5.04912 36.6376 5.10918 36.7704 5.26293C36.903 5.41667 36.9285 5.63399 36.835 5.8134C36.7414 5.99281 36.5472 6.09918 36.3428 6.08298C36.0639 6.06006 35.8564 5.81953 35.8788 5.54506ZM29.3592 36.844C29.3592 36.9736 29.3068 37.098 29.2136 37.1897C29.1205 37.2813 28.994 37.333 28.8622 37.333H13.1377C12.8632 37.333 12.6407 37.114 12.6407 36.844C12.6407 36.5738 12.8632 36.3549 13.1377 36.3549H15.1753C15.999 34.392 16.4959 32.3111 16.6464 30.1929H25.274C25.4197 32.312 25.9166 34.3937 26.745 36.3549H28.8622C29.1351 36.3549 29.357 36.5715 29.3592 36.84V36.844Z" fill="#91471E"/>
</svg>
