<svg width="42" height="42" viewBox="0 0 42 42" fill="none" xmlns="http://www.w3.org/2000/svg">
<g clip-path="url(#clip0_2192_2217)">
<path d="M32.0148 23.2775C31.3688 23.2775 30.7631 23.5287 30.3101 23.9846C30.2647 24.0309 30.2205 24.0772 30.1781 24.1255C30.1377 24.0792 30.0953 24.0329 30.0511 23.9866C29.5951 23.5287 28.9875 23.2775 28.3434 23.2775C27.6993 23.2775 27.0926 23.5287 26.6395 23.9846C26.5952 24.0309 26.5509 24.0772 26.5095 24.1255C26.4691 24.0772 26.4267 24.0309 26.3814 23.9866C25.9244 23.5286 25.3178 23.2775 24.6756 23.2775C24.2255 23.2775 23.7942 23.3996 23.4199 23.6281V20.899C24.718 20.0728 25.5167 18.6555 25.5167 17.1035C25.5167 14.6167 23.4909 12.5908 21.0031 12.5908C18.5173 12.5908 16.4923 14.6157 16.4923 17.1035C16.4923 18.6557 17.292 20.0739 18.5881 20.899V31.2018C17.0803 30.3065 15.3734 29.8358 13.5929 29.8358C12.2603 29.8358 11.179 30.9202 11.179 32.2507C11.179 33.5813 12.2622 34.6666 13.5929 34.6666C16.3475 34.6666 18.5881 36.9062 18.5881 39.6618H19.7483C19.7483 36.2669 16.9867 33.5046 13.593 33.5046C12.9006 33.5046 12.3393 32.9432 12.3393 32.2509C12.3393 31.5585 12.9006 30.9951 13.593 30.9951C15.4967 30.9951 17.3039 31.6037 18.8187 32.7541C18.9941 32.888 19.2293 32.9087 19.4273 32.8112C19.6233 32.7138 19.7484 32.5118 19.7484 32.2922V17.1065C19.7484 16.7697 19.8794 16.4545 20.1177 16.2201C20.354 15.9837 20.6701 15.8527 21.0031 15.8527C21.34 15.8527 21.6542 15.9837 21.8905 16.2211C22.1288 16.4575 22.2579 16.7726 22.2579 17.1085V25.6973C22.2579 26.0164 22.5199 26.2774 22.8389 26.2774C23.1581 26.2774 23.42 26.0163 23.42 25.6973C23.42 25.3615 23.551 25.0463 23.7854 24.8109C24.0257 24.5726 24.3409 24.4416 24.6757 24.4416C25.0105 24.4416 25.3258 24.5726 25.5612 24.809C25.7966 25.0444 25.9266 25.3624 25.9266 25.6993V25.7002C25.9276 26.0194 26.1876 26.2793 26.5076 26.2793C26.8268 26.2793 27.0877 26.0194 27.0877 25.6992C27.0877 25.3635 27.2187 25.0472 27.459 24.8089C27.6963 24.5726 28.0114 24.4415 28.3433 24.4415C28.6781 24.4415 28.9934 24.5726 29.2277 24.8089C29.465 25.0463 29.5951 25.3635 29.5951 25.6992C29.5951 26.0184 29.8571 26.2793 30.1761 26.2793C30.4953 26.2793 30.7552 26.0194 30.7552 25.6992V25.6973C30.7552 25.3635 30.8891 25.0482 31.1305 24.8089C31.3668 24.5706 31.682 24.4415 32.0148 24.4415C32.3477 24.4415 32.6618 24.5725 32.8992 24.8089C33.1356 25.0472 33.2685 25.3634 33.2685 25.6973V39.6687H34.4287L34.4288 25.6964C34.4288 25.0542 34.1777 24.4456 33.7207 23.9886C33.2626 23.5287 32.657 23.2776 32.0149 23.2776L32.0148 23.2775ZM21 14.6914C20.3559 14.6914 19.7492 14.9415 19.2961 15.3965C18.8382 15.8506 18.586 16.4582 18.586 17.1054V19.4168C17.9971 18.8022 17.6514 17.9838 17.6514 17.1063C17.6514 15.2578 19.1533 13.7547 21.0008 13.7547C22.8494 13.7547 24.3543 15.2577 24.3543 17.1063C24.3543 17.9848 24.0056 18.8042 23.4177 19.4178V17.1063C23.4177 16.4603 23.1655 15.8536 22.7095 15.3996C22.2516 14.9425 21.6459 14.6914 20.9999 14.6914H21Z" fill="#841A14"/>
<path d="M24.6904 12.5965L25.5109 13.416L27.3536 11.5742V8.16665C28.171 7.91654 28.7708 7.1621 28.7708 6.26389C28.7708 5.16187 27.8746 4.26562 26.7726 4.26562C25.6715 4.26562 24.7753 5.16191 24.7753 6.26389C24.7753 7.1621 25.374 7.91655 26.1935 8.16665V11.0936L24.6904 12.5965ZM25.9362 6.26479C25.9362 5.80286 26.3115 5.42663 26.7754 5.42663C27.2373 5.42663 27.6135 5.80289 27.6135 6.26479C27.6135 6.7267 27.2373 7.10395 26.7754 7.10395C26.3115 7.10201 25.9362 6.72577 25.9362 6.26479Z" fill="#841A14"/>
<path d="M20.4209 7.82031H21.5811V8.93617H20.4209V7.82031Z" fill="#841A14"/>
<path d="M20.4209 10.0518H21.5811V11.1676H20.4209V10.0518Z" fill="#841A14"/>
<path d="M26.9377 16.5254H28.0546V17.6856H26.9377V16.5254Z" fill="#841A14"/>
<path d="M29.1704 16.5254H30.2872V17.6856H29.1704V16.5254Z" fill="#841A14"/>
<path d="M11.7126 16.5254H12.8295V17.6856H11.7126V16.5254Z" fill="#841A14"/>
<path d="M13.9456 16.5254H15.0624V17.6856H13.9456V16.5254Z" fill="#841A14"/>
<path d="M14.6485 8.16671V11.5743L16.4892 13.4161L17.3096 12.5966L15.8088 11.0948V8.16472C16.6261 7.91461 17.226 7.1621 17.226 6.26389C17.226 5.16187 16.3297 4.26562 15.2278 4.26562C14.1258 4.26562 13.2295 5.1619 13.2295 6.26389C13.2284 7.16307 13.8312 7.91655 14.6486 8.16665L14.6485 8.16671ZM15.2276 5.42588C15.6895 5.42588 16.0668 5.80214 16.0668 6.26504C16.0668 6.72698 15.6895 7.10321 15.2276 7.10321C14.7657 7.10309 14.3895 6.72586 14.3895 6.26492C14.3905 5.80202 14.7657 5.42588 15.2276 5.42588Z" fill="#841A14"/>
<path d="M21 6.32858C22.102 6.32858 22.9982 5.43133 22.9982 4.33127C22.9982 3.22926 22.102 2.33301 21 2.33301C19.898 2.33301 19.0017 3.22929 19.0017 4.33127C19.0037 5.43133 19.899 6.32858 21 6.32858ZM21 3.49211C21.4619 3.49211 21.8391 3.86837 21.8391 4.33127C21.8391 4.79321 21.4619 5.16835 21 5.16835C20.538 5.16835 20.1608 4.79309 20.1608 4.33127C20.1629 3.86837 20.538 3.49211 21 3.49211Z" fill="#841A14"/>
<path d="M33.7773 15.1074C32.6753 15.1074 31.7791 16.0037 31.7791 17.1047C31.7791 18.2067 32.6753 19.103 33.7773 19.103C34.8774 19.104 35.7737 18.2077 35.7737 17.1057C35.7737 16.0035 34.8774 15.1074 33.7773 15.1074ZM33.7773 17.9428C33.3144 17.9428 32.9382 17.5665 32.9382 17.1046C32.9382 16.6427 33.3144 16.2655 33.7773 16.2655C34.2393 16.2655 34.6155 16.6427 34.6155 17.1046C34.6134 17.5675 34.2362 17.9428 33.7773 17.9428Z" fill="#841A14"/>
<path d="M8.22507 15.1074C7.12402 15.1074 6.22681 16.0036 6.22681 17.1057C6.22681 18.2077 7.12405 19.104 8.22507 19.104C9.32709 19.104 10.2233 18.2077 10.2233 17.1057C10.2244 16.0035 9.32526 15.1074 8.22507 15.1074ZM8.22507 17.9428C7.76314 17.9428 7.38591 17.5665 7.38591 17.1046C7.38591 16.6427 7.76314 16.2655 8.22507 16.2655C8.68701 16.2656 9.06324 16.6438 9.06324 17.1057C9.06324 17.5675 8.68698 17.9428 8.22507 17.9428Z" fill="#841A14"/>
</g>
<defs>
<clipPath id="clip0_2192_2217">
<rect width="37.3333" height="37.3333" fill="white" transform="translate(2.33325 2.33301)"/>
</clipPath>
</defs>
</svg>
