<svg width="42" height="42" viewBox="0 0 42 42" fill="none" xmlns="http://www.w3.org/2000/svg">
<path d="M14.6829 11.4736H24.8217V13.1633H14.6829V11.4736Z" fill="#41454D"/>
<path d="M9.68104 14.5087L10.8933 13.2965L12.1052 14.5084L13.0609 13.5527L11.849 12.3408L13.0609 11.1286L12.1052 10.1729L10.8933 11.3847L9.68142 10.1729L8.72572 11.1286L9.93759 12.3408L8.72534 13.553L9.68104 14.5087Z" fill="#41454D"/>
<path d="M12.4431 17.6494L10.34 19.7525L9.34325 18.7556L8.38721 19.7114L10.3401 21.6642L13.3988 18.6051L12.4431 17.6494Z" fill="#41454D"/>
<path d="M9.34315 26.198L8.38745 27.1537L10.3399 29.1062L13.3986 26.0476L12.4429 25.0918L10.3399 27.1948L9.34315 26.198Z" fill="#41454D"/>
<path d="M6.7408 33.9481V6.91066H28.7087V16.5557C29.2063 16.1772 29.8089 15.9696 30.4443 15.9696C30.7187 15.9696 30.9868 16.0096 31.2436 16.0835V6.06568C31.2436 5.13611 30.4823 4.37598 29.5539 4.37598H5.89576C4.96582 4.37598 4.20605 5.13615 4.20605 6.06568V34.7924C4.20605 35.7209 4.96585 36.4822 5.89576 36.4822H16.6615C16.4632 35.6048 16.6786 34.6558 17.3058 33.9476H6.74077L6.7408 33.9481Z" fill="#41454D"/>
<path d="M14.6829 28.0338H16.4095C16.9371 27.4036 17.7241 27.0016 18.6032 27.0016H19.0348C19.046 26.9713 19.0575 26.9403 19.0688 26.9101L18.4666 26.3438H14.6829L14.6829 28.0338Z" fill="#41454D"/>
<path d="M22.6643 19.933C22.531 19.6053 22.4683 19.257 22.4613 18.9082L14.6829 18.9083V20.598H22.2631C22.3836 20.3691 22.515 20.1455 22.6643 19.933Z" fill="#41454D"/>
<path d="M20.1205 23.0767C19.8733 22.8296 19.4731 22.836 19.2255 23.0831C18.978 23.3303 18.9772 23.7342 19.2244 23.9813L20.7394 25.4059C20.8581 25.5247 21.0194 25.4971 21.1873 25.4971H22.4197C21.542 26.5976 20.9657 27.9196 20.7524 29.2413L18.6033 29.2412C18.2535 29.2412 17.9705 29.5522 17.9705 29.9019C17.9705 30.2517 18.2535 30.5632 18.6033 30.5632H20.6593C20.6701 31.6641 20.949 32.7655 21.4351 33.6466H20.9764C20.8084 33.6466 20.647 33.7429 20.5284 33.862L19.0135 35.3961C18.7666 35.6436 18.767 36.0513 19.0142 36.2981C19.1381 36.4209 19.2994 36.4862 19.461 36.4862C19.623 36.4862 19.7855 36.4249 19.9086 36.3006L21.2384 34.9686H22.2598C23.5041 36.5104 25.4587 37.5113 27.4411 37.6233L27.4409 24.3961H21.4489L20.1205 23.0767Z" fill="#41454D"/>
<path d="M37.1623 29.241H34.9682C34.6953 27.9194 33.9916 26.5974 33.1673 25.4968H34.5781C34.7461 25.4968 34.9075 25.5263 35.0261 25.4076L36.5414 23.9366C36.7879 23.689 36.787 23.3128 36.5399 23.0663C36.292 22.8191 35.8922 22.817 35.645 23.0645L34.3152 24.3955H28.3232V37.6186C30.306 37.4894 32.2249 36.2896 33.4693 34.968H34.5263L35.856 36.3019C35.9796 36.4266 36.1416 36.4889 36.3036 36.4889C36.4656 36.4889 36.6269 36.4269 36.7505 36.3044C36.998 36.058 36.9984 35.6574 36.7516 35.4099L35.2366 33.8612C35.1179 33.7421 34.9566 33.6458 34.7887 33.6458H34.3041C34.7962 32.765 35.0787 31.6634 35.0896 30.5624H37.1616C37.511 30.5624 37.7941 30.251 37.7941 29.9011C37.7942 29.5516 37.5119 29.241 37.1625 29.241L37.1623 29.241Z" fill="#41454D"/>
<path d="M23.7899 23.5147H31.9743C31.9743 21.9728 31.2093 20.8132 30.061 20.0887L30.8871 19.2793C31.1343 19.0321 31.1343 18.6402 30.8871 18.393C30.6399 18.1462 30.2397 18.1503 29.9925 18.3972L28.7979 19.5944C28.503 19.5269 28.1976 19.4888 27.8821 19.4888C27.5666 19.4888 27.2608 19.5284 26.9659 19.596L25.7713 18.4018C25.5241 18.1546 25.1239 18.1546 24.8767 18.4018C24.6295 18.6486 24.6295 19.0495 24.8767 19.2967L25.7025 20.0889C24.5548 20.8137 23.7898 21.973 23.7898 23.5149L23.7899 23.5147Z" fill="#41454D"/>
</svg>
