<?xml version="1.0" encoding="UTF-8"?>
<svg width="1200pt" height="1200pt" version="1.1" viewBox="0 0 1200 1200" xmlns="http://www.w3.org/2000/svg">
 <path d="m163.08 367.78c11.109 89.812 92.953 153.61 182.76 142.5 24.422-3.0469 46.875-11.297 66.469-23.484 0.70312-0.42188 1.5-0.42188 2.2031 0l70.734 43.688c1.5938 0.98438 3.5625-0.46875 3.0938-2.2969l-23.438-92.766c-0.14062-0.5625-0.046875-1.0781 0.23438-1.5938 18.984-30.656 28.031-67.734 23.25-106.31-11.109-89.812-92.953-153.61-182.76-142.5-89.906 11.109-153.71 92.953-142.55 182.76zm813.89 87.562 69.094 69.094c0.79688 0.79688 2.1094 0.79688 2.9062 0l28.266-28.266c6-6 6-15.891 0-21.891l-50.109-50.109c-6-6-15.891-6-21.891 0l-28.266 28.266c-0.79688 0.79688-0.79688 2.1094 0 2.9062zm-313.31 313.31c-0.79688-0.79688-0.79688-2.1094 0-2.9062l288.42-288.42c0.79688-0.79687 2.1094-0.79687 2.9062 0l69.094 69.094c0.79688 0.79688 0.79688 2.1094 0 2.9062l-288.37 288.42c-0.79688 0.79687-2.1094 0.79687-2.9062 0zm-24.047 95.625 59.344-11.859c1.6406-0.32812 2.25-2.3438 1.0781-3.5156l-47.484-47.484c-1.1719-1.1719-3.1875-0.5625-3.5156 1.0781l-11.859 59.344c-0.32812 1.4531 0.98438 2.7188 2.4375 2.4375zm383.68 122.11h-903c-1.125 0-2.0625 0.9375-2.0625 2.0625v25.688c0 1.125 0.9375 2.0625 2.0625 2.0625h903c1.125 0 2.0625-0.9375 2.0625-2.0625v-25.688c0-1.125-0.9375-2.0625-2.0625-2.0625zm-491.16-217.6c-16.828 92.016-97.5 160.13-192.42 160.13-48.891 0-95.438-18.141-131.26-50.531-0.84375-0.79688-2.1562-0.70312-2.9531 0.14062l-65.203 73.359c-1.1719 1.3594-0.23437 3.4688 1.5469 3.4688h859.82c1.7812 0 2.7188-2.1094 1.5469-3.4688l-157.45-177.19c-0.79688-0.89062-2.1562-0.9375-3-0.09375l-97.547 97.547c-2.3906 2.3906-5.1562 3.7031-8.2031 4.3125l-117.23 23.438c-10.828 2.1562-20.578-7.4062-18.234-18.562l22.359-111.8c0.28125-1.2656-0.70312-2.4844-2.0156-2.4844h-87.703c-1.0312 0.046874-1.875 0.70312-2.0625 1.7344zm-27.891-35.531c0 90.094-72.891 164.53-164.53 164.53-91.078 0-164.53-73.875-164.53-164.53 0-90.891 73.641-164.53 164.53-164.53s164.53 73.688 164.53 164.53zm-131.29-65.531c24.422 0 44.156 19.781 44.156 44.156 0 39.75-41.391 85.031-76.547 100.97-0.5625 0.23438-1.1719 0.23438-1.7344 0-35.109-15.938-76.547-61.172-76.547-100.97 0-40.031 48.891-58.828 75.891-30.75 0.84375 0.84375 2.1562 0.84375 2.9531 0 8.1094-8.25 19.359-13.406 31.828-13.406zm305.11-387.05 128.63 74.25c3.4688 1.9688 3.4688 6.9844-0.046875 8.9531l-128.58 74.25c-3.4688 1.9688-7.7344-0.51562-7.7344-4.4531v-148.55c0-3.9375 4.2656-6.4219 7.7344-4.4531zm-46.781-63.75c-78.703 45.422-105.66 146.06-60.234 224.76 45.422 78.703 146.06 105.66 224.76 60.234 78.695-45.422 105.66-146.06 60.234-224.76-45.422-78.703-146.06-105.7-224.76-60.234zm-224.9 154.03c-8.5781 0-15.516-6.9844-15.516-15.516 0-8.5781 6.9844-15.516 15.516-15.516h1.8281c8.5781 0 15.516 6.9844 15.516 15.516 0 8.5781-6.9844 15.516-15.516 15.516zm-64.219-15.516c0 8.5781-6.9844 15.516-15.516 15.516h-1.8281c-8.5781 0-15.516-6.9844-15.516-15.516 0-8.5781 6.9844-15.516 15.516-15.516h1.8281c8.5781-0.046876 15.516 6.9375 15.516 15.516zm-98.906 15.516c-8.5781 0-15.516-6.9844-15.516-15.516 0-8.5781 6.9844-15.516 15.516-15.516h1.8281c8.5781 0 15.516 6.9844 15.516 15.516 0 8.5781-6.9844 15.516-15.516 15.516z" fill-rule="evenodd"/>
</svg>
