<svg height="100px" width="100px" fill="#000000" xmlns="http://www.w3.org/2000/svg" viewBox="0 0 32 32" class="icon" x="0px" y="0px"><title>ico-summary-report</title><g fill="none" fill-rule="evenodd"><path d="M28.6 14.146V29a1 1 0 0 1-1 1h-23a1 1 0 0 1-1-1V3a1 1 0 0 1 1-1h12.039A8.55 8.55 0 0 0 28.6 14.146zM11.93 25.437V15.6H7.774v9.837h4.154zm6.438 0V18.53h-4.154v6.907h4.154zm6.438 0V21.46h-4.154v3.977h4.154zM22.33 8.481h6.96a5.937 5.937 0 0 1-1.771 3.516 6.32 6.32 0 0 1-4.41 1.77 6.32 6.32 0 0 1-4.41-1.77 5.909 5.909 0 0 1 0-8.543 6.284 6.284 0 0 1 3.63-1.716V8.48zm2.215-2.057V1.975c1.136.01 2.27.447 3.136 1.314.867.866 1.304 2 1.314 3.135h-4.45z" fill="#000000" fill-rule="nonzero"/></g></svg>