<svg height="100px" width="100px" fill="#000000" xmlns:dc="http://purl.org/dc/elements/1.1/" xmlns:cc="http://creativecommons.org/ns#" xmlns:rdf="http://www.w3.org/1999/02/22-rdf-syntax-ns#" xmlns:svg="http://www.w3.org/2000/svg" xmlns="http://www.w3.org/2000/svg" xmlns:sodipodi="http://sodipodi.sourceforge.net/DTD/sodipodi-0.dtd" xmlns:inkscape="http://www.inkscape.org/namespaces/inkscape" version="1.1" x="0px" y="0px" viewBox="0 0 100 100"><g transform="translate(0,-952.36218)"><path d="m 9.77424,1012.682 10e-6,-19.75988 -10e-6,-0.7401 0.84649,0 19.65352,0 0,20.49998 z" style="" fill="#000000" fill-opacity="1" stroke-width="0"/><path style="" d="m 39.77424,1012.682 1e-5,-19.75988 -1e-5,-0.7401 0.8465,0 19.65351,0 0,20.49998 z" fill="#000000" fill-opacity="1" stroke-width="0"/><path style="" d="m 9.77424,1040.682 10e-6,-19.76 -10e-6,-0.74 0.84649,0 19.65352,0 0,20.5 z" fill="#000000" fill-opacity="1" stroke-width="0"/><path d="m 39.77424,1040.682 1e-5,-19.76 -1e-5,-0.74 0.8465,0 19.65351,0 0,20.5 z" style="" fill="#000000" fill-opacity="1" stroke-width="0"/><path d="m 39.72575,984.54234 1e-5,-19.75995 -1e-5,-0.74005 0.84649,0 19.65352,0 0,20.5 z" style="" fill="#000000" fill-opacity="1" stroke-width="0"/><path style="" d="m 69.72575,984.54234 10e-6,-19.75995 -10e-6,-0.74005 0.8465,0 19.65351,0 0,20.5 z" fill="#000000" fill-opacity="1" stroke-width="0"/><path style="" d="m 39.72575,1012.5423 1e-5,-19.75988 -1e-5,-0.7401 0.84649,0 19.65352,0 0,20.49998 z" fill="#000000" fill-opacity="1" stroke-width="0"/><path d="m 69.72575,1012.5423 10e-6,-19.75988 -10e-6,-0.7401 0.8465,0 19.65351,0 0,20.49998 z" style="" fill="#000000" fill-opacity="1" stroke-width="0"/><path style="" d="m 69.72575,1040.682 10e-6,-19.76 -10e-6,-0.74 0.8465,0 19.65351,0 0,20.5 z" fill="#000000" fill-opacity="1" stroke-width="0"/><path d="m 9.77424,984.54234 10e-6,-19.75995 -10e-6,-0.74005 0.84649,0 19.65352,0 0,20.5 z" style="" fill="#000000" fill-opacity="1" stroke-width="0"/></g></svg>