<?xml version="1.0" encoding="utf-8"?>
<!-- Generator: Adobe Illustrator 23.0.6, SVG Export Plug-In . SVG Version: 6.00 Build 0)  -->
<svg version="1.1" id="Layer_1" xmlns="http://www.w3.org/2000/svg" xmlns:xlink="http://www.w3.org/1999/xlink" x="0px" y="0px"
	 width="48px" height="48px" viewBox="0 0 48 48" enable-background="new 0 0 48 48" xml:space="preserve">
<path fill="#1A1A1A" d="M42.371,34.733H29.195c-2.118,0-3.835-1.717-3.835-3.835V17.102c0-2.118,1.717-3.835,3.835-3.835h13.175
	c2.118,0,3.835,1.717,3.835,3.835v13.795C46.206,33.016,44.489,34.733,42.371,34.733z"/>
<g>
	
		<line fill="none" stroke="#FFFFFF" stroke-width="3" stroke-linejoin="round" stroke-miterlimit="10" x1="28.38" y1="15.998" x2="43.655" y2="31.273"/>
</g>
<path fill="#1A1A1A" d="M18.805,34.733H5.629c-2.118,0-3.835-1.717-3.835-3.835V17.102c0-2.118,1.717-3.835,3.835-3.835h13.175
	c2.118,0,3.835,1.717,3.835,3.835v13.795C22.64,33.016,20.923,34.733,18.805,34.733z"/>
<g>
	
		<line fill="none" stroke="#FFFFFF" stroke-width="3" stroke-linejoin="round" stroke-miterlimit="10" x1="43.307" y1="16.346" x2="28.032" y2="31.621"/>
</g>
<g>
	<path fill="#FFFFFF" d="M4.048,26.176c1.415,0.682,2.74,1.47,4.024,2.304c1.301,0.815,2.539,1.703,3.758,2.615l-2.073,0.447
		c1.184-3.022,2.543-5.962,4.075-8.821c0.773-1.426,1.579-2.837,2.471-4.208c0.868-1.382,1.817-2.726,2.886-4.014
		c-0.302,1.647-0.724,3.237-1.227,4.789c-0.479,1.564-1.044,3.087-1.642,4.595c-1.21,3.01-2.592,5.939-4.151,8.786l-0.083,0.152
		c-0.335,0.611-1.101,0.836-1.713,0.501c-0.102-0.056-0.198-0.129-0.278-0.206c-1.086-1.065-2.153-2.154-3.157-3.315
		C5.918,28.66,4.938,27.471,4.048,26.176z"/>
</g>
</svg>
