<?xml version="1.0" encoding="utf-8"?>
<!-- Generator: Adobe Illustrator 23.0.6, SVG Export Plug-In . SVG Version: 6.00 Build 0)  -->
<svg version="1.1" id="Layer_1" xmlns="http://www.w3.org/2000/svg" xmlns:xlink="http://www.w3.org/1999/xlink" x="0px" y="0px"
	 width="48px" height="48px" viewBox="0 0 48 48" enable-background="new 0 0 48 48" xml:space="preserve">
<path fill="#1A1A1A" d="M42.512,34.301H29.204c-2.118,0-3.835-1.717-3.835-3.835V16.534c0-2.118,1.717-3.835,3.835-3.835h13.308
	c2.118,0,3.835,1.717,3.835,3.835v13.932C46.348,32.584,44.631,34.301,42.512,34.301z"/>
<g>
	
		<line fill="none" stroke="#FFFFFF" stroke-width="3" stroke-linejoin="round" stroke-miterlimit="10" x1="28.408" y1="15.447" x2="43.78" y2="30.82"/>
</g>
<path fill="#808080" d="M18.796,34.301H5.488c-2.118,0-3.835-1.717-3.835-3.835V16.534c0-2.118,1.717-3.835,3.835-3.835h13.308
	c2.118,0,3.835,1.717,3.835,3.835v13.932C22.631,32.584,20.914,34.301,18.796,34.301z"/>
<g>
	
		<line fill="none" stroke="#FFFFFF" stroke-width="3" stroke-linejoin="round" stroke-miterlimit="10" x1="43.43" y1="15.797" x2="28.058" y2="31.17"/>
</g>
<g>
	<path fill="#FFFFFF" d="M3.92,25.69c1.422,0.688,2.755,1.482,4.046,2.323c1.308,0.821,2.554,1.716,3.78,2.633l-2.073,0.447
		c1.192-3.041,2.561-5.999,4.101-8.877c0.778-1.436,1.588-2.856,2.484-4.236c0.872-1.391,1.825-2.745,2.899-4.042
		c-0.306,1.656-0.732,3.256-1.24,4.817c-0.484,1.573-1.053,3.106-1.655,4.623c-1.219,3.028-2.61,5.976-4.177,8.842l-0.083,0.151
		c-0.334,0.612-1.101,0.836-1.713,0.502c-0.102-0.056-0.198-0.128-0.278-0.206c-1.094-1.072-2.168-2.166-3.18-3.334
		C5.806,28.186,4.818,26.991,3.92,25.69z"/>
</g>
</svg>
