<svg fill="#000000" xmlns="http://www.w3.org/2000/svg" xmlns:xlink="http://www.w3.org/1999/xlink" version="1.1" viewBox="0 0 52 52" enable-background="new 0 0 52 52" xml:space="preserve"><g><g><path d="M44.737236,7.2700195C41.3372116,3.8699951,36.8172531,2,32.0172653,2S22.697258,3.8699951,19.2972336,7.2700195    c-6.7724009,6.7723999-6.9815073,17.6396484-0.6682129,24.6904297l-3.7256479,3.725647l-0.5461426-0.5460815    c-0.539978-0.5400391-1.4400024-0.6000366-2.039978-0.1500244l-8.3300171,6.1699829    c-1.1499634,0.8500366-1.8699951,2.1500244-1.9699707,3.5800171c-0.1100464,1.4199829,0.4099731,2.8200073,1.4199829,3.8300171    C4.3672404,49.4899902,5.5972209,50,6.8972697,50c1.5799556,0,3.0099483-0.7200317,3.9499507-1.9799805l6.1700449-8.3300171    c0.4599609-0.6199951,0.3899536-1.5-0.1500244-2.039978l-0.5498047-0.5498657l3.7246094-3.7246094    c3.3036499,2.9598389,7.5122681,4.5944214,11.9752197,4.5944214c4.7999878,0,9.3199463-1.8699951,12.7199707-5.2699585    c3.3900146-3.3900146,5.2600098-7.9099731,5.2600098-12.710022C49.9972458,15.1799927,48.1272507,10.6699829,44.737236,7.2700195z     M41.197258,29.1699829c-2.4500122,2.4500122-5.710022,3.7999878-9.1799927,3.7999878    c-3.4700317,0-6.7300415-1.3499756-9.1799927-3.7999878c-5.0599976-5.0699463-5.0599976-13.2999878,0-18.3599854    C25.2872238,8.3500366,28.5472336,7,32.0172653,7c3.4699707,0,6.7299805,1.3500366,9.1799927,3.8099976    c2.4499512,2.4500122,3.7999878,5.710022,3.7999878,9.1799927C44.9972458,23.4500122,43.6472092,26.710022,41.197258,29.1699829z"/></g></g></svg>