<?xml version="1.0" encoding="utf-8"?>
<!-- Generator: Adobe Illustrator 23.0.6, SVG Export Plug-In . SVG Version: 6.00 Build 0)  -->
<svg version="1.1" id="Layer_1" xmlns="http://www.w3.org/2000/svg" xmlns:xlink="http://www.w3.org/1999/xlink" x="0px" y="0px"
	 viewBox="0 0 48 48" enable-background="new 0 0 48 48" xml:space="preserve">
<pattern  x="-16" y="-116" width="28.8" height="28.8" patternUnits="userSpaceOnUse" id="_x2A_10_dpi-30_x25_" viewBox="16.56 -30.96 28.8 28.8" overflow="visible">
	<g>
		<rect x="16.56" y="-30.96" fill="none" width="28.8" height="28.8"/>
		<path fill="#231F20" d="M45.36,0c1.191,0,2.159-0.967,2.159-2.16c0-1.193-0.968-2.16-2.159-2.16c-1.193,0-2.16,0.967-2.16,2.16
			C43.2-0.967,44.167,0,45.36,0z"/>
		<path fill="#231F20" d="M30.96,0c1.192,0,2.16-0.967,2.16-2.16c0-1.193-0.968-2.16-2.16-2.16c-1.193,0-2.16,0.967-2.16,2.16
			C28.8-0.967,29.767,0,30.96,0z"/>
		<path fill="#231F20" d="M16.56,0c1.192,0,2.16-0.967,2.16-2.16c0-1.193-0.968-2.16-2.16-2.16c-1.193,0-2.16,0.967-2.16,2.16
			C14.4-0.967,15.367,0,16.56,0z"/>
		<path fill="#231F20" d="M45.36-14.4c1.191,0,2.159-0.967,2.159-2.16c0-1.193-0.968-2.16-2.159-2.16c-1.193,0-2.16,0.967-2.16,2.16
			C43.2-15.367,44.167-14.4,45.36-14.4z"/>
		<path fill="#231F20" d="M30.96-14.4c1.192,0,2.16-0.967,2.16-2.16c0-1.193-0.968-2.16-2.16-2.16c-1.193,0-2.16,0.967-2.16,2.16
			C28.8-15.367,29.767-14.4,30.96-14.4z"/>
		<path fill="#231F20" d="M16.56-14.4c1.192,0,2.16-0.967,2.16-2.16c0-1.193-0.968-2.16-2.16-2.16c-1.193,0-2.16,0.967-2.16,2.16
			C14.4-15.367,15.367-14.4,16.56-14.4z"/>
		<path fill="#231F20" d="M45.36-28.8c1.191,0,2.159-0.967,2.159-2.16c0-1.193-0.968-2.16-2.159-2.16c-1.193,0-2.16,0.967-2.16,2.16
			C43.2-29.767,44.167-28.8,45.36-28.8z"/>
		<path fill="#231F20" d="M30.96-28.8c1.192,0,2.16-0.967,2.16-2.16c0-1.193-0.968-2.16-2.16-2.16c-1.193,0-2.16,0.967-2.16,2.16
			C28.8-29.767,29.767-28.8,30.96-28.8z"/>
		<path fill="#231F20" d="M16.56-28.8c1.192,0,2.16-0.967,2.16-2.16c0-1.193-0.968-2.16-2.16-2.16c-1.193,0-2.16,0.967-2.16,2.16
			C14.4-29.767,15.367-28.8,16.56-28.8z"/>
		<path fill="#231F20" d="M2.16-28.8c1.192,0,2.16-0.967,2.16-2.16c0-1.193-0.968-2.16-2.16-2.16C0.967-33.12,0-32.153,0-30.96
			C0-29.767,0.967-28.8,2.16-28.8z"/>
		<path fill="#231F20" d="M2.16-30.96"/>
		<path fill="#231F20" d="M23.76-7.2c1.192,0,2.16-0.967,2.16-2.16c0-1.193-0.968-2.16-2.16-2.16c-1.193,0-2.16,0.967-2.16,2.16
			C21.6-8.167,22.567-7.2,23.76-7.2z"/>
		<path fill="#231F20" d="M38.16-7.2c1.191,0,2.16-0.967,2.16-2.16c0-1.193-0.969-2.16-2.16-2.16c-1.193,0-2.16,0.967-2.16,2.16
			C36-8.167,36.967-7.2,38.16-7.2z"/>
		<path fill="#231F20" d="M23.76-21.6c1.192,0,2.16-0.967,2.16-2.16c0-1.193-0.968-2.16-2.16-2.16c-1.193,0-2.16,0.967-2.16,2.16
			C21.6-22.567,22.567-21.6,23.76-21.6z"/>
		<path fill="#231F20" d="M38.16-21.6c1.191,0,2.16-0.967,2.16-2.16c0-1.193-0.969-2.16-2.16-2.16c-1.193,0-2.16,0.967-2.16,2.16
			C36-22.567,36.967-21.6,38.16-21.6z"/>
		<path fill="#231F20" d="M9.36-21.6c1.192,0,2.16-0.967,2.16-2.16c0-1.193-0.968-2.16-2.16-2.16c-1.193,0-2.16,0.967-2.16,2.16
			C7.2-22.567,8.167-21.6,9.36-21.6z"/>
		<path fill="#231F20" d="M9.36-23.76"/>
	</g>
</pattern>
<ellipse fill="none" stroke="#000000" stroke-width="2" stroke-miterlimit="10" cx="22.824" cy="21.283" rx="4.8" ry="10.8"/>
<line fill="none" stroke="#000000" stroke-width="2" stroke-miterlimit="10" x1="22.824" y1="10.483" x2="42.624" y2="13.483"/>
<line fill="none" stroke="#000000" stroke-width="2" stroke-miterlimit="10" x1="22.824" y1="32.083" x2="42.624" y2="29.083"/>
<ellipse fill="none" stroke="#000000" stroke-width="2" stroke-miterlimit="10" cx="42.024" cy="21.283" rx="1.8" ry="8.4"/>
<pattern  id="SVGID_1_" xlink:href="#_x2A_10_dpi-30_x25_" patternTransform="matrix(0.58 0 0 0.58 -3349.8894 -3304.3455)">
</pattern>
<path fill="url(#SVGID_1_)" stroke="#231F20" stroke-width="2" stroke-miterlimit="10" d="M11.495,25.603
	c0.868-0.491,1.809-0.72,2.929-0.72c1.2,0,3.6-1.2,3.6-1.2l25.723,0.045c-0.224,3.447-0.911,5.955-1.723,5.955l-18,2.4l1.2,1.2
	c0,0,3,0.6,3,1.8s0,3-3.6,3.6c-3.6,0.6-5.4,0-7.2-0.6c-1.8-0.6-3.6-2.4-5.4-1.8c-1.8,0.6-3,0.6-6,0c-3-0.6-6.6-1.8-3.6-4.2
	c1.194-0.955,2.413-1.896,3.721-2.691c1.477-0.896,2.797-1.655,4.076-2.841C10.636,26.166,11.056,25.851,11.495,25.603z"/>
</svg>
