<?xml version="1.0" encoding="utf-8"?>
<!-- Generator: Adobe Illustrator 23.0.6, SVG Export Plug-In . SVG Version: 6.00 Build 0)  -->
<svg version="1.1" id="Layer_1" xmlns="http://www.w3.org/2000/svg" xmlns:xlink="http://www.w3.org/1999/xlink" x="0px" y="0px"
	 viewBox="0 0 48 48" enable-background="new 0 0 48 48" xml:space="preserve">
<g id="XMLID_1_">
	<g>
		<path d="M38.366,2.518c0.782-0.552,2.493,0.524,3.817,2.399c1.327,1.878,1.766,3.847,0.985,4.399l-0.708,0.5l-0.107,0.041
			c-0.464-1.162-1.143-2.411-2.011-3.641s-1.819-2.286-2.762-3.11l0.077-0.089L38.366,2.518z"/>
		<path fill="#999999" d="M37.58,3.106c0.943,0.824,1.893,1.881,2.762,3.11s1.547,2.478,2.011,3.641
			c0.195,0.486,0.351,0.954,0.468,1.402l-8.634,6.098c-0.411-1.514-1.263-3.273-2.484-4.996c-2.495-3.52-5.661-5.64-7.374-5.024
			l8.379-5.918C33.758,0.677,35.648,1.406,37.58,3.106z"/>
		<path fill="#666666" d="M34.187,17.357l8.634-6.098c0.464,1.757,0.329,3.164-0.51,3.757l-8.214,5.802
			C34.582,20.08,34.594,18.836,34.187,17.357z"/>
		<path fill="#FFFFFF" d="M34.187,17.357c0.407,1.478,0.395,2.723-0.09,3.461c-0.112,0.172-0.246,0.314-0.407,0.428
			c-1.591,1.12-5.058-1.047-7.742-4.836c-2.688-3.787-3.575-7.766-1.987-8.884c0.113-0.08,0.236-0.141,0.368-0.188
			c1.713-0.616,4.879,1.504,7.374,5.024C32.924,14.085,33.776,15.844,34.187,17.357z"/>
	</g>
	<g>
		<path fill="none" stroke="#000000" stroke-width="2" stroke-miterlimit="10" d="M24.329,7.338
			c1.713-0.616,4.879,1.504,7.374,5.024c1.221,1.723,2.073,3.482,2.484,4.996c0.407,1.478,0.395,2.723-0.09,3.461
			c-0.112,0.172-0.246,0.314-0.407,0.428c-1.591,1.12-5.058-1.047-7.742-4.836c-2.688-3.787-3.575-7.766-1.987-8.884
			C24.074,7.446,24.196,7.385,24.329,7.338z"/>
		<path fill="none" stroke="#000000" stroke-width="2" stroke-miterlimit="10" d="M23.926,7.622l0.402-0.284l8.379-5.918
			c1.051-0.742,2.941-0.014,4.873,1.687c0.943,0.824,1.893,1.881,2.762,3.11s1.547,2.478,2.011,3.641
			c0.195,0.486,0.351,0.954,0.468,1.402c0.464,1.757,0.329,3.164-0.51,3.757l-8.214,5.802l-0.567,0.4"/>
		<path fill="none" stroke="#000000" stroke-width="2" stroke-miterlimit="10" d="M37.657,3.018l0.708-0.5
			c0.782-0.552,2.493,0.524,3.817,2.399c1.327,1.878,1.766,3.847,0.985,4.399l-0.708,0.5"/>
	</g>
</g>
<circle cx="37.692" cy="12.431" r="1.951"/>
<line fill="none" stroke="#000000" stroke-width="4" stroke-miterlimit="10" x1="37.909" y1="12.648" x2="37.909" y2="43.288"/>
<line fill="none" stroke="#000000" stroke-width="2" stroke-miterlimit="10" x1="23.178" y1="8.338" x2="13.039" y2="9.593"/>
<line fill="none" stroke="#000000" stroke-width="2" stroke-miterlimit="10" x1="23.934" y1="12.862" x2="14.939" y2="16.701"/>
<line fill="none" stroke="#000000" stroke-width="2" stroke-miterlimit="10" x1="26.249" y1="16.209" x2="18.209" y2="22.34"/>
<line fill="none" stroke="#000000" stroke-width="2" stroke-miterlimit="10" x1="28.247" y1="19.475" x2="22.299" y2="26.625"/>
<line fill="none" stroke="#000000" stroke-width="2" stroke-miterlimit="10" x1="32.414" y1="21.791" x2="28.6" y2="30.529"/>
<ellipse fill="#FFFFFF" stroke="#000000" stroke-miterlimit="10" cx="13.461" cy="43.288" rx="10.5" ry="3"/>
<ellipse stroke="#000000" stroke-width="4" stroke-miterlimit="10" cx="37.909" cy="43.888" rx="7.285" ry="1.842"/>
</svg>
