<svg viewBox="0 0 160 160" fill="none" xmlns="http://www.w3.org/2000/svg">
<path d="M130.715 60.2881C130.615 60.5277 130.515 60.8072 130.395 61.0468C130.395 61.0268 130.395 61.0268 130.395 61.0068C130.455 60.7273 130.555 60.4877 130.715 60.2881Z" fill="black"/>
<path d="M135.047 60.1683C136.185 56.894 136.784 53.42 136.784 49.8861C136.784 33.7738 124.645 20.6764 109.731 20.6764C104.5 20.6764 100.527 21.7346 96.7332 24.2303C91.1229 13.8282 79.8623 7 67.4437 7C49.3948 7 34.7002 21.1157 34.4207 38.5855C31.6854 37.2678 29.4492 37.1081 25.7955 37.1081C11.5601 37.1081 0 49.906 0 65.6189C0 76.2806 5.98967 86.5429 14.5549 91.4943C13.5966 93.7904 13.3769 95.7869 13.3769 98.3026C13.3769 109.024 22.0021 117.749 32.6038 117.749C35.1594 117.749 37.6751 117.23 39.9711 116.252C41.7081 123.659 50.3332 128.93 61.4141 128.93C70.0792 128.93 77.5862 125.136 81.0802 119.626C85.9319 122.92 91.9615 124.737 98.1708 124.737C113.404 124.737 125.803 114.075 125.803 100.998C125.803 100.599 125.803 100.319 125.823 100.08C126.781 100.219 127.78 100.299 128.758 100.299C139.639 100.299 148.504 91.0551 148.504 79.6747C148.504 70.7701 142.974 62.9236 135.047 60.1683ZM128.758 96.306C125.923 96.306 123.128 95.4875 120.692 93.9701C119.754 93.3711 118.536 93.6506 117.937 94.589C117.358 95.5274 117.637 96.7453 118.556 97.3442C119.574 97.9831 120.652 98.5422 121.77 98.9615C121.85 99.3208 121.85 99.4806 121.83 99.8998C121.81 100.179 121.81 100.519 121.81 100.998C121.81 111.879 111.208 120.744 98.1708 120.744C92.5205 120.744 87.0499 119.047 82.7573 115.912C83.0368 114.854 83.1966 113.756 83.1966 112.618C83.1966 111.52 82.3181 110.621 81.2 110.621C80.1019 110.621 79.2035 111.52 79.2035 112.618C79.2035 119.426 71.2172 124.937 61.4141 124.937C51.651 124.937 44.1838 120.365 43.6647 114.175C44.9625 113.257 46.1604 112.159 47.1986 110.921C47.9174 110.082 47.8176 108.824 46.959 108.106C46.1205 107.387 44.8627 107.507 44.1439 108.345C41.2489 111.779 37.0361 113.756 32.6038 113.756C24.1983 113.756 17.3701 106.828 17.3701 98.3026C17.3701 96.0265 17.5697 94.6489 18.1687 93.1914C18.6079 93.3511 19.0472 93.4909 19.4864 93.6306C19.6861 93.6905 19.8658 93.7305 20.0654 93.7305C20.9239 93.7305 21.7026 93.1714 21.9821 92.3129C22.3016 91.2547 21.7026 90.1367 20.6444 89.8172C11.1408 86.9422 3.99312 76.5401 3.99312 65.6189C3.99312 52.1022 13.7762 41.1012 25.7955 41.1012C29.7088 41.1012 31.346 41.2609 34.241 43.0179C34.4406 43.1377 34.6602 43.2176 34.8998 43.2575C34.9597 43.517 34.9997 43.7766 35.0396 44.0361C35.1594 44.715 35.2592 45.3139 35.2991 45.6933C35.4389 46.6916 36.2974 47.4303 37.2757 47.4303C37.3756 47.4303 37.4554 47.4303 37.5553 47.4103C38.6334 47.2706 39.4121 46.2723 39.2523 45.1742C39.2124 44.7549 39.0926 44.116 38.9728 43.3773C38.7532 41.9797 38.3938 39.8633 38.3938 39.1047C38.3938 23.6114 51.4313 10.9931 67.4437 10.9931C80.4214 10.9931 91.9215 19.4186 95.4155 31.4978C95.735 32.5759 96.8331 33.1749 97.8912 32.8754C98.9494 32.5559 99.5683 31.4578 99.2489 30.3997C99.0093 29.5611 98.7298 28.7225 98.4103 27.904C101.745 25.568 104.979 24.6695 109.731 24.6695C122.449 24.6695 132.791 35.99 132.791 49.8861C132.791 53.4799 132.092 57.0138 130.735 60.2482C130.735 60.2482 130.715 60.2682 130.715 60.2881C130.615 60.5277 130.515 60.8072 130.395 61.0468C130.016 61.9253 129.557 62.7838 129.077 63.6024C128.518 64.5408 128.818 65.7587 129.776 66.3377C130.096 66.5174 130.455 66.6172 130.795 66.6172C131.473 66.6172 132.132 66.2578 132.512 65.6389C132.871 65.0399 133.19 64.441 133.49 63.822C139.979 65.9783 144.511 72.3873 144.511 79.6747C144.511 88.8589 137.443 96.306 128.758 96.306Z" fill="black"/>
<path d="M39.7914 129.409C38.5535 126.634 36.1577 124.358 33.5022 123.459C30.6072 122.501 27.4327 123 24.8771 124.857C23.6792 125.715 22.6609 126.833 21.8623 128.131C19.0072 132.863 20.4248 139.332 24.9969 142.247C26.4544 143.185 28.0716 143.664 29.8086 143.664C34.0214 143.664 38.2141 140.789 39.9911 136.676C40.9494 134.44 40.8895 131.865 39.7914 129.409ZM36.3174 135.079C34.7601 138.713 30.168 140.809 27.1532 138.893C24.4179 137.136 23.5394 133.083 25.2764 130.208C25.7955 129.369 26.4544 128.63 27.2131 128.091C28.2313 127.353 29.3694 126.973 30.5274 126.973C31.1064 126.973 31.6654 127.053 32.2444 127.253C33.8217 127.792 35.359 129.269 36.1377 131.026C36.4971 131.845 37.0162 133.482 36.3174 135.079Z" fill="black"/>
<path d="M23.4596 148.257C21.5429 146.12 17.5098 145.841 14.9542 147.638C13.4568 148.696 12.5384 150.253 12.3787 152.09C12.0792 155.245 13.0375 157.041 13.916 158C14.8943 159.078 16.252 159.657 17.7295 159.657C20.8042 159.657 24.2782 157.041 24.7573 152.649C24.9969 150.473 24.1783 149.055 23.4596 148.257ZM17.7295 155.664C17.3701 155.664 17.0906 155.564 16.8709 155.324C16.4117 154.825 16.232 153.767 16.3518 152.469C16.4117 151.81 16.7112 151.291 17.2503 150.912C17.7095 150.573 18.3484 150.393 18.9673 150.393C19.6262 150.393 20.1852 150.592 20.4847 150.932C20.7443 151.211 20.8441 151.651 20.7842 152.23C20.5246 154.586 18.8076 155.664 17.7295 155.664Z" fill="black"/>
<path d="M110.964 93.2146L101.478 55.808L106.005 51.8194C106.2 51.8405 106.396 51.8405 106.59 51.8194C107.128 51.8241 107.654 51.668 108.102 51.3713C108.55 51.0745 108.899 50.6506 109.105 50.1539C109.31 49.6573 109.362 49.1106 109.254 48.5842C109.147 48.0577 108.884 47.5754 108.5 47.1994C107.987 46.7062 107.302 46.4308 106.59 46.4308C105.878 46.4308 105.194 46.7062 104.681 47.1994C104.363 47.5135 104.129 47.9021 104 48.3298C103.871 48.7574 103.851 49.2106 103.942 49.648L100.631 52.5586L99.4294 47.8C99.393 47.5942 99.315 47.398 99.2004 47.2233C99.0857 47.0485 98.9366 46.899 98.7623 46.7838C98.588 46.6685 98.392 46.5899 98.1863 46.5528C97.9807 46.5157 97.7696 46.5209 97.566 46.568L95.6872 47.0454L96.18 44.8894C96.2254 44.6911 96.2311 44.4859 96.1968 44.2854C96.1624 44.0849 96.0887 43.8933 95.9799 43.7215C95.8711 43.5496 95.7293 43.4011 95.5628 43.2844C95.3962 43.1676 95.2082 43.085 95.0096 43.0414L49.2254 32.708C49.0272 32.6625 48.8219 32.6568 48.6214 32.6912C48.421 32.7255 48.2293 32.7992 48.0575 32.908C47.8857 33.0169 47.7371 33.1586 47.6204 33.3252C47.5037 33.4917 47.4211 33.6797 47.3774 33.8784L37.044 79.6934C36.9986 79.8916 36.9929 80.0969 37.0272 80.2973C37.0616 80.4978 37.1353 80.6895 37.2441 80.8613C37.3529 81.0331 37.4947 81.1816 37.6612 81.2984C37.8278 81.4151 38.0158 81.4977 38.2144 81.5414L57.449 85.8688L62.3924 105.473C62.4797 105.812 62.6798 106.111 62.9597 106.321C63.2396 106.531 63.5827 106.639 63.9324 106.628C64.0602 106.644 64.1896 106.644 64.3174 106.628L109.809 95.1396C110.015 95.095 110.209 95.0087 110.38 94.8861C110.551 94.7636 110.695 94.6073 110.803 94.4269C110.911 94.2466 110.981 94.0459 111.009 93.8374C111.037 93.6289 111.021 93.4169 110.964 93.2146ZM40.432 78.908L50.057 36.096L92.8382 45.721L92.33 47.9386L52.059 58.1026C51.8601 58.1478 51.6722 58.2322 51.5062 58.3507C51.3402 58.4692 51.1994 58.6194 51.0919 58.7928C50.9845 58.9662 50.9125 59.1591 50.8803 59.3605C50.848 59.5619 50.8561 59.7677 50.904 59.966L56.602 82.5116L40.432 78.908ZM65.072 103.255L54.292 60.7514L93.87 50.7568L96.7806 50.0176L97.9972 54.8224L91.2982 60.7206C91.012 60.9954 90.843 61.3702 90.8263 61.7666C90.8097 62.1631 90.9467 62.5507 91.2089 62.8486C91.471 63.1465 91.838 63.3317 92.2334 63.3656C92.6288 63.3995 93.022 63.2795 93.331 63.0306L98.8442 58.1796L107.514 92.5216L65.072 103.255ZM97.104 67.974C97.1577 68.1691 97.1725 68.373 97.1474 68.5738C97.1223 68.7747 97.0578 68.9686 96.9577 69.1446C96.8576 69.3205 96.7237 69.4749 96.5639 69.5991C96.404 69.7233 96.2212 69.8147 96.026 69.8682L66.5812 78.0456C66.4432 78.0644 66.3034 78.0644 66.1654 78.0456C65.757 78.1007 65.3434 77.9913 65.0156 77.7415C64.6878 77.4917 64.4726 77.1219 64.4175 76.7135C64.3624 76.305 64.4717 75.8914 64.7215 75.5636C64.9714 75.2358 65.3412 75.0207 65.7496 74.9656L95.2098 66.896C95.4049 66.8422 95.6088 66.8275 95.8096 66.8526C96.0105 66.8777 96.2045 66.9421 96.3804 67.0423C96.5563 67.1424 96.7108 67.2762 96.8349 67.4361C96.9591 67.5959 97.0505 67.7787 97.104 67.974ZM92.176 79.3854C92.2963 79.7754 92.2568 80.1973 92.0662 80.5582C91.8756 80.9192 91.5495 81.1897 91.1596 81.3104L69.8922 87.8554C69.5063 87.9616 69.0943 87.9135 68.7433 87.7212C68.3923 87.5289 68.13 87.2076 68.0118 86.8252C67.8937 86.4428 67.9291 86.0294 68.1105 85.6727C68.2919 85.3159 68.605 85.0438 68.9836 84.914L90.251 78.369C90.4451 78.3071 90.6496 78.2843 90.8525 78.302C91.0555 78.3197 91.2529 78.3775 91.4334 78.472C91.6139 78.5665 91.7738 78.6959 91.9039 78.8527C92.034 79.0095 92.1318 79.1906 92.1914 79.3854H92.176ZM53.1986 46.8298C53.2339 46.6305 53.3081 46.4402 53.417 46.2697C53.5259 46.0991 53.6674 45.9517 53.8333 45.8359C53.9992 45.72 54.1863 45.638 54.3839 45.5945C54.5815 45.551 54.7858 45.5469 54.985 45.5824L72.9876 48.8472C73.396 48.8839 73.7731 49.0814 74.0359 49.3962C74.2988 49.711 74.4258 50.1173 74.389 50.5258C74.3522 50.9342 74.1547 51.3113 73.8399 51.5741C73.5251 51.8369 73.1188 51.9639 72.7104 51.9272H72.4332L54.446 48.6316C54.2452 48.5964 54.0534 48.5216 53.8817 48.4117C53.71 48.3018 53.5619 48.1589 53.4458 47.9913C53.3298 47.8237 53.2482 47.6347 53.2057 47.4353C53.1633 47.2359 53.1609 47.0301 53.1986 46.8298V46.8298Z" fill="black"/>
</svg>
