<svg height="100px" width="100px" fill="#000000" xmlns="http://www.w3.org/2000/svg" xmlns:ooo="http://xml.openoffice.org/svg/export" xmlns:xlink="http://www.w3.org/1999/xlink" xmlns:presentation="http://sun.com/xmlns/staroffice/presentation" xmlns:smil="http://www.w3.org/2001/SMIL20/" xmlns:anim="urn:oasis:names:tc:opendocument:xmlns:animation:1.0" version="1.2" viewBox="0 0 2540 2540" preserveAspectRatio="xMidYMid" fill-rule="evenodd" stroke-width="28.222" stroke-linejoin="round" xml:space="preserve" x="0px" y="0px"><defs class="ClipPathGroup"><clipPath id="a" clipPathUnits="userSpaceOnUse"><rect x="0" y="0" width="2540" height="2540"/></clipPath></defs><g class="SlideGroup"><g><g><g class="Slide" clip-path="url(#a)"><g class="Page"><g class="com.sun.star.drawing.ClosedBezierShape"><g><rect class="BoundingBox" stroke="none" fill="none" x="231" y="576" width="2049" height="1623"/><path fill="#000000" stroke="none" d="M 1149,1366 C 1137,1343 1127,1318 1121,1292 1112,1261 1108,1228 1108,1195 1108,1170 1110,1145 1116,1121 L 1116,1120 C 1123,1093 1131,1065 1143,1040 1154,1013 1169,989 1187,968 1202,949 1220,933 1240,921 1060,856 545,671 520,662 499,655 480,652 463,652 453,652 443,653 434,655 426,657 418,660 410,664 394,672 381,685 369,699 356,714 346,732 337,751 328,771 321,791 316,812 310,835 307,861 307,887 307,910 309,933 314,956 319,978 326,1000 336,1020 346,1039 358,1057 373,1071 387,1086 404,1098 423,1106 450,1115 948,1294 1149,1366 Z M 545,590 L 545,591 C 831,693 1118,796 1404,899 L 1405,899 C 1406,900 1407,900 1408,900 1408,901 1409,901 1409,901 1441,913 1469,932 1491,953 1514,975 1532,1000 1546,1028 1560,1054 1570,1083 1576,1112 1582,1141 1585,1170 1585,1199 1585,1230 1582,1261 1575,1288 1571,1305 1567,1321 1561,1336 1632,1345 1730,1378 1796,1371 1888,1362 1988,1296 2072,1335 2127,1360 2140,1435 2172,1487 2208,1545 2293,1597 2276,1663 2266,1701 2213,1713 2175,1722 2124,1735 2061,1687 2032,1731 1992,1793 2228,1877 2214,1949 2195,2041 1969,2026 1888,2074 1808,2121 1731,2221 1643,2193 1559,2166 1567,2023 1495,1973 1452,1943 1377,1977 1344,1937 1277,1857 1363,1720 1323,1624 1302,1574 1065,1559 1171,1513 1188,1502 1191,1484 1188,1461 928,1368 652,1267 396,1177 L 394,1176 C 365,1164 340,1146 319,1125 298,1104 281,1080 268,1054 255,1028 246,1001 240,972 234,944 231,915 231,887 231,854 235,822 243,793 249,768 257,743 268,719 280,694 294,671 311,650 329,628 350,610 375,597 388,590 401,585 416,581 431,578 446,576 463,576 488,576 515,580 545,590 Z M 1194,1273 C 1197,1285 1201,1298 1206,1309 1276,1325 1402,1358 1457,1372 1464,1363 1471,1353 1476,1341 1487,1321 1495,1298 1501,1271 1506,1249 1509,1224 1509,1199 1509,1176 1507,1152 1502,1128 1497,1106 1489,1083 1478,1062 1468,1042 1455,1024 1439,1008 1423,993 1404,981 1382,972 1369,969 1357,968 1345,968 1334,968 1324,969 1314,971 1305,973 1296,977 1288,981 1272,989 1257,1002 1245,1016 1232,1032 1221,1051 1212,1071 1203,1092 1195,1115 1190,1137 1186,1156 1184,1176 1184,1195 1184,1221 1187,1248 1194,1273 Z"/></g></g></g></g></g></g></g></svg>