<svg height="100px" width="100px" fill="#000000" xmlns="http://www.w3.org/2000/svg" xmlns:xlink="http://www.w3.org/1999/xlink" version="1.1" x="0px" y="0px" viewBox="-0.0002441 0 208 176" enable-background="new -0.0002441 0 208 176" xml:space="preserve"><g><path d="M154.807373,99.4013672l-11.7871094-11.7866211l11.7832031-11.7836914v4.8413086h13.2412109V48.5361328   c0-13.0102539-10.5478516-23.5595703-23.5595703-23.5595703h-81.152832c-13.0107422,0-23.5595703,10.5493164-23.5595703,23.5595703   v32.1362305H53.013916v-4.8393555l11.7836914,11.7861328L53.013916,99.4033203v-4.8417969H39.7727051v35.1269531   c0,13.0117188,10.5488281,23.5595703,23.5595703,23.5595703h9.034668c0-16.2636719,0.015625-28.0292969,0.0498047-28.3203125   c1.2060547-16.1591797,14.7636719-28.9375,31.2832031-28.96875c16.6669922-0.0224609,30.6552734,12.9013672,31.6943359,29.2597656   c0.0351563,0.3037109,0.0527344,11.9306641,0.0585938,28.0292969h9.0322266   c13.0117188,0,23.5595703-10.5478516,23.5595703-23.5595703V94.5615234H154.807373V99.4013672z M103.9099121,91.5019531   c-13.4033203,0-24.2705078-10.8681641-24.2705078-24.2714844c0-13.40625,10.8671875-24.2714844,24.2705078-24.2714844   c13.4042969,0,24.2705078,10.8652344,24.2705078,24.2714844C128.1804199,80.6337891,117.314209,91.5019531,103.9099121,91.5019531z   "/><polygon points="92.1247559,136.7080078 96.9641113,136.7080078 96.9641113,153.375 110.8532715,153.375 110.8532715,136.7060547    115.6940918,136.7060547 103.9099121,124.921875  "/></g></svg>