<svg height="100px" width="100px" fill="#000000" xmlns="http://www.w3.org/2000/svg" xmlns:xlink="http://www.w3.org/1999/xlink" xml:space="preserve" version="1.1" style="shape-rendering:geometricPrecision;text-rendering:geometricPrecision;image-rendering:optimizeQuality;" viewBox="0 0 1693.32 1693.32" x="0px" y="0px" fill-rule="evenodd" clip-rule="evenodd"><defs><style type="text/css">
   
    .fil0 {fill:#000000;fill-rule:nonzero}
   
  </style></defs><g><path class="fil0" d="M871.66 399.24c227.6,12.52 409.9,194.82 422.42,422.42l244.95 0c32.88,0 32.88,50 0,50l-244.95 0c-12.5,227.58 -194.85,409.9 -422.42,422.42l0 244.95c0,32.88 -50,32.88 -50,0l0 -244.95c-227.56,-12.5 -409.92,-194.86 -422.42,-422.42l-244.95 0c-32.88,0 -32.88,-50 0,-50l244.95 0c12.52,-227.57 194.84,-409.92 422.42,-422.42l0 -244.95c0,-32.88 50,-32.88 50,0l0 244.95zm237.09 532.53l0 -170.23 -176.98 0 0 -176.97 -170.23 0 0 176.97 -176.97 0 0 170.23 176.97 0 0 176.98 170.23 0 0 -176.98 176.98 0zm-838.47 -680.88l384.46 0 -38.79 38.79 -326.27 0 0 326.27 -38.79 38.79 0 -384.46c0,-10.7 8.69,-19.39 19.39,-19.39zm768.3 0l384.46 0c10.7,0 19.39,8.69 19.39,19.39l0 384.46 -38.79 -38.79 0 -326.27 -326.27 0 -38.79 -38.79zm403.85 787.69l0 384.46c0,10.7 -8.69,19.39 -19.39,19.39l-384.46 0 38.79 -38.79 326.27 0 0 -326.27 38.79 -38.79zm-787.69 403.85l-384.46 0c-10.7,0 -19.39,-8.69 -19.39,-19.39l0 -384.46 38.79 38.79 0 326.27 326.27 0 38.79 38.79zm56.44 -970.2c-110.87,40.13 -198.82,128.09 -238.95,238.95l-42.73 0 0 270.94 42.72 0c40.13,110.88 128.09,198.84 238.96,238.97l0 42.73 270.94 0 0 -42.72c110.89,-40.13 198.86,-128.1 238.98,-238.98l42.72 0 0 -270.94 -42.73 0c-40.12,-110.89 -128.08,-198.84 -238.97,-238.96l0 -42.72 -270.94 0 0 42.73z"/></g></svg>