<svg height="100px" width="100px" fill="#000000" xmlns="http://www.w3.org/2000/svg" xmlns:xlink="http://www.w3.org/1999/xlink" version="1.1" x="0px" y="0px" viewBox="0 0 100 100" style="enable-background:new 0 0 100 100;" xml:space="preserve"><style type="text/css">
	.st0{fill:none;stroke:#000000;stroke-width:2;stroke-miterlimit:10;}
</style><g><g><path d="M41.8,30.2l13.4,13.4l6.4,6.4l-6.4,6.4L41.8,69.8l-5.7-5.7l8.4-8.4l1.7-1.7h-2.4H6v-8h37.9h2.4l-1.7-1.7l-8.4-8.4    L41.8,30.2 M41.8,28.8l-7.1,7.1l9.1,9.1H5v10h38.9l-9.1,9.1l7.1,7.1l14.1-14.1L63,50l-7.1-7.1L41.8,28.8L41.8,28.8z"/></g><g><path d="M94,6v88h-8V6H94 M95,5H85v90h10V5L95,5z"/></g></g></svg>