<?xml version="1.0" encoding="utf-8"?>
<!-- Generator: Adobe Illustrator 23.0.3, SVG Export Plug-In . SVG Version: 6.00 Build 0)  -->
<svg version="1.1" id="Layer_1" xmlns="http://www.w3.org/2000/svg" xmlns:xlink="http://www.w3.org/1999/xlink" x="0px" y="0px"
	 width="48px" height="48px" viewBox="0 0 48 48" enable-background="new 0 0 48 48" xml:space="preserve">
<g>
	<path d="M5.74,5.22c0,0.55-0.24,1.01-0.71,1.35C4.56,6.92,3.92,7.1,3.11,7.1c-0.47,0-0.88-0.04-1.23-0.12S1.21,6.79,0.9,6.66V5.31
		h0.16c0.3,0.24,0.64,0.42,1.01,0.55c0.37,0.13,0.73,0.19,1.08,0.19c0.09,0,0.21-0.01,0.35-0.02c0.14-0.02,0.26-0.04,0.35-0.08
		c0.11-0.05,0.2-0.1,0.28-0.17c0.07-0.07,0.11-0.17,0.11-0.3c0-0.12-0.05-0.23-0.16-0.32C3.98,5.07,3.83,5.01,3.62,4.96
		c-0.21-0.05-0.44-0.1-0.68-0.14c-0.24-0.04-0.46-0.1-0.67-0.17C1.8,4.49,1.46,4.29,1.25,4.02S0.94,3.43,0.94,3.04
		c0-0.52,0.24-0.95,0.71-1.28s1.08-0.5,1.82-0.5c0.37,0,0.74,0.04,1.1,0.11s0.68,0.16,0.95,0.27v1.3H5.36
		C5.14,2.75,4.86,2.6,4.53,2.48C4.19,2.36,3.86,2.29,3.51,2.29c-0.12,0-0.24,0.01-0.36,0.02C3.03,2.34,2.91,2.37,2.8,2.41
		c-0.1,0.04-0.18,0.1-0.25,0.17S2.44,2.75,2.44,2.85C2.44,3,2.5,3.11,2.61,3.19s0.33,0.15,0.65,0.22c0.21,0.04,0.41,0.08,0.6,0.12
		s0.4,0.1,0.62,0.17c0.43,0.14,0.75,0.33,0.96,0.58C5.64,4.52,5.74,4.83,5.74,5.22z"/>
	<path d="M9.4,6.96C9.25,6.99,9.1,7.02,8.93,7.04c-0.16,0.02-0.37,0.03-0.6,0.03c-0.53,0-0.93-0.11-1.19-0.32
		c-0.26-0.21-0.39-0.58-0.39-1.1V3.67H6.19V2.75h0.56V1.53h1.37v1.21H9.4v0.92H8.12v1.51c0,0.15,0,0.28,0,0.39
		c0,0.11,0.02,0.21,0.06,0.3c0.04,0.09,0.1,0.16,0.19,0.21c0.09,0.05,0.22,0.08,0.39,0.08c0.07,0,0.16-0.02,0.28-0.05
		c0.12-0.03,0.2-0.06,0.24-0.08H9.4V6.96z"/>
	<path d="M12.8,6.54c-0.07,0.06-0.16,0.12-0.27,0.2s-0.21,0.14-0.31,0.19c-0.13,0.06-0.27,0.11-0.42,0.13s-0.3,0.04-0.48,0.04
		c-0.41,0-0.75-0.12-1.02-0.37S9.9,6.16,9.9,5.78c0-0.31,0.07-0.56,0.21-0.76c0.14-0.2,0.34-0.35,0.59-0.47
		c0.25-0.11,0.57-0.19,0.94-0.24c0.38-0.05,0.76-0.08,1.17-0.11V4.18c0-0.23-0.1-0.4-0.29-0.49c-0.19-0.09-0.48-0.13-0.85-0.13
		c-0.23,0-0.47,0.04-0.72,0.12c-0.26,0.08-0.44,0.14-0.55,0.18h-0.13V2.84c0.14-0.04,0.38-0.08,0.71-0.13
		c0.33-0.05,0.65-0.08,0.98-0.08c0.78,0,1.34,0.12,1.69,0.36c0.35,0.24,0.52,0.61,0.52,1.12v2.89H12.8V6.54z M12.8,5.88V5
		c-0.18,0.02-0.39,0.04-0.6,0.06c-0.22,0.03-0.38,0.06-0.49,0.09c-0.14,0.04-0.24,0.1-0.31,0.19c-0.07,0.08-0.11,0.19-0.11,0.32
		c0,0.09,0.01,0.16,0.02,0.21s0.05,0.11,0.11,0.16c0.06,0.05,0.13,0.09,0.21,0.11c0.08,0.02,0.21,0.04,0.38,0.04
		c0.14,0,0.28-0.03,0.42-0.08C12.57,6.05,12.7,5.97,12.8,5.88z"/>
	<path d="M18.52,4.04H18.4C18.34,4.02,18.24,4.01,18.11,4c-0.13-0.01-0.24-0.02-0.32-0.02c-0.19,0-0.37,0.01-0.52,0.04
		s-0.31,0.07-0.48,0.13v2.84h-1.37V2.75h1.37v0.62c0.3-0.26,0.56-0.43,0.79-0.51s0.43-0.13,0.62-0.13c0.05,0,0.1,0,0.16,0
		c0.06,0,0.11,0.01,0.16,0.01V4.04z"/>
	<path d="M22.02,6.96c-0.15,0.04-0.3,0.07-0.47,0.09c-0.16,0.02-0.37,0.03-0.6,0.03c-0.53,0-0.93-0.11-1.19-0.32
		c-0.26-0.21-0.39-0.58-0.39-1.1V3.67h-0.56V2.75h0.56V1.53h1.37v1.21h1.28v0.92h-1.28v1.51c0,0.15,0,0.28,0,0.39
		c0,0.11,0.02,0.21,0.06,0.3c0.04,0.09,0.1,0.16,0.19,0.21c0.09,0.05,0.22,0.08,0.39,0.08c0.07,0,0.16-0.02,0.28-0.05
		s0.2-0.06,0.24-0.08h0.11V6.96z"/>
	<path d="M29.79,6.99h-1.37V4.89c0-0.17-0.01-0.34-0.03-0.51C28.38,4.2,28.35,4.08,28.3,4c-0.05-0.09-0.12-0.16-0.22-0.2
		c-0.1-0.04-0.23-0.06-0.41-0.06c-0.12,0-0.25,0.02-0.38,0.06c-0.13,0.04-0.27,0.1-0.42,0.19v3.01H25.5V1.11h1.37v2.11
		c0.24-0.19,0.48-0.33,0.7-0.44c0.22-0.1,0.47-0.15,0.75-0.15c0.46,0,0.82,0.13,1.08,0.4c0.26,0.27,0.39,0.67,0.39,1.2V6.99z"/>
	<path d="M35.26,5.12h-3.13c0.02,0.33,0.15,0.59,0.38,0.76c0.23,0.18,0.58,0.26,1.04,0.26c0.29,0,0.57-0.05,0.84-0.16
		c0.27-0.1,0.49-0.21,0.64-0.33h0.15v1.09c-0.31,0.12-0.6,0.21-0.87,0.27s-0.58,0.08-0.91,0.08c-0.86,0-1.51-0.19-1.97-0.58
		c-0.46-0.38-0.68-0.93-0.68-1.64c0-0.7,0.22-1.26,0.65-1.67c0.43-0.41,1.03-0.61,1.78-0.61c0.7,0,1.22,0.17,1.57,0.52
		c0.35,0.35,0.52,0.85,0.52,1.51V5.12z M33.9,4.32c-0.01-0.29-0.08-0.5-0.21-0.64c-0.13-0.14-0.34-0.22-0.63-0.22
		c-0.26,0-0.48,0.07-0.65,0.2c-0.17,0.14-0.26,0.35-0.29,0.65H33.9z"/>
	<path d="M39.32,4.04H39.2C39.14,4.02,39.05,4.01,38.92,4c-0.13-0.01-0.24-0.02-0.32-0.02c-0.19,0-0.37,0.01-0.52,0.04
		c-0.15,0.03-0.31,0.07-0.48,0.13v2.84h-1.37V2.75h1.37v0.62c0.3-0.26,0.56-0.43,0.79-0.51c0.22-0.08,0.43-0.13,0.62-0.13
		c0.05,0,0.1,0,0.16,0c0.06,0,0.11,0.01,0.16,0.01V4.04z"/>
	<path d="M44.3,5.12h-3.13c0.02,0.33,0.15,0.59,0.38,0.76c0.23,0.18,0.58,0.26,1.04,0.26c0.29,0,0.57-0.05,0.84-0.16
		c0.27-0.1,0.49-0.21,0.64-0.33h0.15v1.09c-0.31,0.12-0.6,0.21-0.87,0.27c-0.27,0.06-0.58,0.08-0.91,0.08
		c-0.86,0-1.51-0.19-1.97-0.58c-0.46-0.38-0.68-0.93-0.68-1.64c0-0.7,0.22-1.26,0.65-1.67c0.43-0.41,1.03-0.61,1.78-0.61
		c0.7,0,1.22,0.17,1.57,0.52s0.52,0.85,0.52,1.51V5.12z M42.94,4.32c-0.01-0.29-0.08-0.5-0.21-0.64c-0.13-0.14-0.34-0.22-0.63-0.22
		c-0.26,0-0.48,0.07-0.65,0.2c-0.17,0.14-0.26,0.35-0.29,0.65H42.94z"/>
	<path d="M46.9,4.23h-1.42V2.75h1.42V4.23z M46.9,6.99h-1.42V5.51h1.42V6.99z"/>
</g>
<path d="M44.63,9.37c-0.49-0.49-1.28-0.49-1.77,0l-5.37,5.37V11.5c0-0.69-0.56-1.25-1.25-1.25S35,10.81,35,11.5v6.25
	c0,0.69,0.56,1.25,1.25,1.25h6.25c0.69,0,1.25-0.56,1.25-1.25s-0.56-1.25-1.25-1.25h-3.23l5.37-5.37
	C45.12,10.65,45.12,9.85,44.63,9.37z"/>
<circle fill="none" stroke="#000000" stroke-miterlimit="10" cx="14.5" cy="17.5" r="5.5"/>
<circle fill="#999999" stroke="#000000" stroke-miterlimit="10" cx="14.5" cy="17.5" r="4"/>
<g>
	<path fill="#FFFFFF" d="M36.13,29.23c-0.27-0.43-0.95-1.22-1.53-1.22c-0.51,0-1.01,0.67-1.27,1.07l-0.79,1.23l-0.86-1.18
		c-0.3-0.4-1.36-1.55-2.32-1.55c-0.55,0-1.1,0.42-1.61,1.24l-0.66,1.05l-0.89-0.87c-0.32-0.31-1.34-1.11-2.22-1.11
		c-0.36,0-0.89,0.12-1.4,1.15l-0.97,1.97l-0.85-2.02l-4.22-10.06l-0.02-0.05l-0.01-0.05c0,0,0,0,0,0c0,0-0.22-0.63-0.78-0.82
		c-0.29-0.1-0.61-0.15-0.91-0.15c-0.3,0-0.86,0.06-1.17,0.44c-0.31,0.39-0.37,1.1-0.18,2.02l9.72,23.2l-1.81,0.86l-2.7-5.08
		c-0.28-0.28-1.4-1.28-2.84-1.28c-0.3,0-0.6,0.04-0.9,0.13l3.15,7.52c0.1,0.18,0.58,1.08,1.36,2.33h23.46
		c-0.1-1.73-0.46-3.68-1.33-5.75L36.13,29.23z"/>
	<path d="M18.1,45.67l-3.15-7.52c0.3-0.09,0.6-0.13,0.9-0.13c1.44,0,2.56,1,2.84,1.28l2.7,5.08l1.81-0.86l-9.72-23.2
		c-0.19-0.92-0.13-1.64,0.18-2.02c0.31-0.39,0.86-0.44,1.17-0.44c0.3,0,0.62,0.05,0.91,0.15c0.56,0.19,0.78,0.82,0.78,0.82
		c0,0,0,0,0,0l0.01,0.05l0.02,0.05l4.22,10.06l0.85,2.02l0.97-1.97c0.51-1.03,1.04-1.15,1.4-1.15c0.88,0,1.9,0.8,2.22,1.11
		l0.89,0.87l0.66-1.05c0.52-0.82,1.06-1.24,1.61-1.24c0.96,0,2.02,1.15,2.32,1.55l0.86,1.18l0.79-1.23c0.26-0.4,0.76-1.07,1.27-1.07
		c0.58,0,1.26,0.79,1.53,1.22l5.46,13.02c0.87,2.07,1.23,4.02,1.33,5.75h1.01c-0.1-1.89-0.5-3.97-1.41-6.14l-5.49-13.1
		c0,0-0.02-0.03-0.03-0.06c-0.01-0.01-0.01-0.02-0.03-0.04c-0.02-0.03-0.06-0.08-0.09-0.13c-0.02-0.02-0.03-0.04-0.05-0.06
		c-0.05-0.08-0.12-0.16-0.2-0.25c-0.01-0.01-0.03-0.03-0.04-0.04c-0.07-0.08-0.14-0.16-0.22-0.24c-0.03-0.03-0.06-0.06-0.09-0.09
		c-0.08-0.07-0.16-0.15-0.24-0.22c-0.03-0.03-0.06-0.05-0.09-0.08c-0.11-0.09-0.24-0.18-0.36-0.25c-0.03-0.02-0.06-0.03-0.09-0.04
		c-0.1-0.06-0.21-0.1-0.32-0.14c-0.04-0.01-0.09-0.03-0.13-0.04c-0.12-0.03-0.25-0.05-0.37-0.06c-0.02,0-0.04-0.01-0.07-0.01
		c-0.01,0-0.02,0-0.03,0c-0.02,0-0.04,0-0.05,0c-0.1,0-0.2,0.02-0.31,0.05c-0.02,0.01-0.05,0.01-0.07,0.02
		c-0.12,0.03-0.23,0.08-0.35,0.14c-0.03,0.01-0.05,0.03-0.08,0.04c-0.11,0.06-0.22,0.14-0.33,0.23c-0.02,0.01-0.03,0.03-0.05,0.04
		c-0.12,0.1-0.25,0.23-0.37,0.37c-0.03,0.03-0.06,0.07-0.09,0.1c-0.13,0.16-0.26,0.32-0.38,0.52c0,0-0.02-0.03-0.05-0.06
		c-0.01-0.02-0.02-0.02-0.04-0.05c-0.03-0.04-0.08-0.09-0.12-0.15c-0.02-0.02-0.04-0.04-0.06-0.07c-0.07-0.08-0.16-0.18-0.26-0.28
		c-0.01-0.01-0.03-0.03-0.04-0.04c-0.09-0.09-0.19-0.18-0.3-0.28c-0.04-0.03-0.08-0.06-0.11-0.1c-0.1-0.09-0.21-0.17-0.32-0.25
		c-0.04-0.03-0.07-0.05-0.11-0.08c-0.15-0.1-0.31-0.2-0.47-0.28c-0.03-0.02-0.07-0.03-0.11-0.05c-0.14-0.06-0.27-0.12-0.42-0.16
		c-0.05-0.02-0.11-0.03-0.16-0.04c-0.15-0.04-0.31-0.06-0.46-0.06c-0.03,0-0.06-0.01-0.08-0.01c-0.01,0-0.02,0-0.03,0
		c-0.02,0-0.05,0-0.07,0c-0.12,0.01-0.25,0.02-0.37,0.05c-0.03,0.01-0.06,0.01-0.08,0.02c-0.14,0.04-0.28,0.09-0.42,0.16
		c-0.03,0.01-0.06,0.03-0.09,0.05c-0.13,0.07-0.26,0.16-0.39,0.26c-0.02,0.02-0.04,0.03-0.06,0.04c-0.14,0.12-0.28,0.26-0.42,0.42
		c-0.03,0.04-0.06,0.08-0.1,0.12c-0.14,0.17-0.29,0.36-0.43,0.59c0,0-0.02-0.02-0.05-0.05c-0.01-0.01-0.02-0.02-0.04-0.03
		c-0.03-0.03-0.07-0.06-0.12-0.1c-0.02-0.02-0.04-0.04-0.07-0.06c-0.06-0.05-0.13-0.1-0.2-0.16c-0.02-0.02-0.04-0.03-0.07-0.05
		c-0.1-0.07-0.21-0.15-0.33-0.23c-0.03-0.02-0.06-0.04-0.09-0.06c-0.1-0.06-0.2-0.12-0.3-0.18c-0.05-0.03-0.09-0.05-0.14-0.07
		c-0.1-0.05-0.21-0.1-0.32-0.15c-0.05-0.02-0.09-0.04-0.14-0.06c-0.16-0.06-0.32-0.11-0.48-0.14c-0.02,0-0.04,0-0.05-0.01
		c-0.15-0.03-0.3-0.04-0.45-0.05c-0.02,0-0.04-0.01-0.06-0.01c-0.08,0-0.17,0.01-0.25,0.02c-0.01,0-0.03,0-0.04,0
		c-0.13,0.02-0.26,0.05-0.38,0.09c-0.03,0.01-0.07,0.03-0.1,0.04c-0.1,0.04-0.2,0.09-0.3,0.15c-0.03,0.02-0.06,0.03-0.09,0.05
		c-0.12,0.08-0.24,0.17-0.36,0.29c-0.02,0.02-0.05,0.05-0.07,0.07c-0.1,0.1-0.19,0.21-0.28,0.33c-0.03,0.04-0.06,0.08-0.09,0.13
		c-0.11,0.16-0.22,0.34-0.32,0.54l-4.22-10.06c0,0-0.34-1.1-1.41-1.47c-0.18-0.06-0.36-0.11-0.55-0.14c-0.02,0-0.05-0.01-0.07-0.01
		c-0.18-0.03-0.37-0.04-0.55-0.05c-0.02,0-0.04,0-0.06,0c-0.02,0-0.03,0-0.05,0c-0.16,0-0.33,0.01-0.48,0.04
		c-0.02,0-0.04,0.01-0.06,0.01c-0.14,0.03-0.28,0.07-0.42,0.11c-0.03,0.01-0.07,0.02-0.1,0.04c-0.15,0.06-0.28,0.13-0.41,0.22
		c-0.02,0.02-0.05,0.04-0.07,0.05c-0.11,0.08-0.22,0.18-0.31,0.29c-0.02,0.02-0.04,0.04-0.06,0.07c-0.1,0.13-0.19,0.28-0.26,0.44
		c-0.02,0.04-0.03,0.08-0.04,0.11c-0.06,0.16-0.11,0.33-0.14,0.53c0,0.03-0.01,0.05-0.02,0.08c-0.03,0.21-0.04,0.45-0.02,0.71
		c0,0.06,0.01,0.12,0.01,0.18c0.02,0.27,0.06,0.56,0.13,0.87l9.76,23.29l-2.77-5.21c0,0-0.03-0.03-0.05-0.05
		c-0.01-0.01-0.02-0.02-0.03-0.03c-0.04-0.04-0.1-0.1-0.18-0.18c0,0-0.01-0.01-0.02-0.01c-0.07-0.07-0.16-0.14-0.26-0.22
		c-0.03-0.02-0.05-0.04-0.08-0.06c-0.11-0.09-0.24-0.18-0.38-0.28c-0.01-0.01-0.03-0.02-0.05-0.03c-0.13-0.08-0.27-0.17-0.42-0.25
		c-0.04-0.02-0.08-0.04-0.12-0.06c-0.17-0.09-0.36-0.17-0.55-0.24c-0.03-0.01-0.06-0.02-0.08-0.03c-0.17-0.06-0.36-0.11-0.55-0.15
		c-0.05-0.01-0.1-0.02-0.15-0.03c-0.22-0.04-0.45-0.06-0.68-0.06c-0.01,0-0.02,0-0.04,0c-0.08,0-0.17,0.01-0.25,0.02
		c-0.08,0-0.15,0.01-0.23,0.01c-0.11,0.01-0.22,0.04-0.33,0.06c-0.08,0.02-0.15,0.02-0.23,0.04c-0.12,0.03-0.25,0.08-0.37,0.12
		c-0.07,0.02-0.13,0.04-0.2,0.07c-0.2,0.08-0.39,0.17-0.59,0.28l3.55,8.47c0,0,0.39,0.76,1.09,1.91h1.17
		C18.68,46.75,18.2,45.85,18.1,45.67z"/>
</g>
</svg>
