<svg fill="#000000" xmlns:x="http://ns.adobe.com/Extensibility/1.0/" xmlns:i="http://ns.adobe.com/AdobeIllustrator/10.0/" xmlns:graph="http://ns.adobe.com/Graphs/1.0/" xmlns="http://www.w3.org/2000/svg" xmlns:xlink="http://www.w3.org/1999/xlink" version="1.1" x="0px" y="0px" viewBox="0 0 100 100" style="enable-background:new 0 0 100 100;" xml:space="preserve"><g><g i:extraneous="self"><g><path d="M5273.1,2400.1v-2c0-2.8-5-4-9.7-4s-9.7,1.3-9.7,4v2c0,1.8,0.7,3.6,2,4.9l5,4.9c0.3,0.3,0.4,0.6,0.4,1v6.4     c0,0.4,0.2,0.7,0.6,0.8l2.9,0.9c0.5,0.1,1-0.2,1-0.8v-7.2c0-0.4,0.2-0.7,0.4-1l5.1-5C5272.4,2403.7,5273.1,2401.9,5273.1,2400.1z      M5263.4,2400c-4.8,0-7.4-1.3-7.5-1.8v0c0.1-0.5,2.7-1.8,7.5-1.8c4.8,0,7.3,1.3,7.5,1.8C5270.7,2398.7,5268.2,2400,5263.4,2400z"/><path d="M5268.4,2410.3c-0.6,0-1,0.4-1,1c0,0.6,0.4,1,1,1h4.3c0.6,0,1-0.4,1-1c0-0.6-0.4-1-1-1H5268.4z"/><path d="M5272.7,2413.7h-4.3c-0.6,0-1,0.4-1,1c0,0.6,0.4,1,1,1h4.3c0.6,0,1-0.4,1-1C5273.7,2414.1,5273.3,2413.7,5272.7,2413.7z"/><path d="M5272.7,2417h-4.3c-0.6,0-1,0.4-1,1c0,0.6,0.4,1,1,1h4.3c0.6,0,1-0.4,1-1C5273.7,2417.5,5273.3,2417,5272.7,2417z"/></g><g><path d="M78.9,40.7l-9.1,9.1l-4.5-4.5c-0.9-0.9-2.3-0.9-3.2,0s-0.9,2.3,0,3.2l6.1,6.1c0.4,0.4,1,0.7,1.6,0.7     c0.6,0,1.2-0.2,1.6-0.7l10.7-10.7c0.9-0.9,0.9-2.3,0-3.2S79.8,39.8,78.9,40.7z"/><path d="M89.4,62.6c5.1-4,8.1-9.6,8.1-15.4c0-11.8-11.9-21.5-26.5-21.5c-8.5,0-16.1,3.3-21,8.3c-4.9-5.1-12.4-8.3-21-8.3     c-14.6,0-26.5,9.6-26.5,21.5c0,6.1,3.2,11.8,8.7,15.9c0.2,1.5-0.6,3-1.6,4.6c-0.8,1.3-1.8,2.9-0.6,4.5c0.4,0.5,1.2,0.9,1.9,1     c0.1,0,0.1,0,0.2,0c2.3,0,9.9-2.2,13.5-4.8c1.5,0.2,3.1,0.3,4.6,0.3c8.5,0,16.1-3.3,21-8.3c4.9,5.1,12.4,8.3,21,8.3     c1.5,0,3.1-0.1,4.6-0.3c3.5,2.7,6.9,4.6,10.1,5.6c0.5,0.1,1,0.2,1.5,0.2c0.3,0,0.5,0,0.8-0.1c1.3-0.2,2.4-0.9,3.2-1.9     c1.3-1.7,1.4-3.9,0.2-5.7C90.5,65.4,89.9,64,89.4,62.6z M29.4,60c-1.4,0-2.6-1.2-2.6-2.6c0-1.4,1.2-2.6,2.6-2.6     c1.4,0,2.6,1.2,2.6,2.6C32,58.9,30.8,60,29.4,60z M35.7,46.5c-1,1.4-2,2.1-2.8,2.6c-0.9,0.6-1.2,0.9-1.3,2.3     c0,0.6-0.6,1.1-1.2,1.1h-1.9c-0.7,0-1.3-0.6-1.2-1.3c0.3-3.3,1.5-4.4,3.1-5.6c0.7-0.5,1.2-0.9,1.8-1.7c0.6-0.8,0.7-1.9,0.2-2.9     c-0.3-0.7-1.2-1.8-3.3-1.8c-2.7,0-3.6,1.7-3.8,3.1c-0.1,0.6-0.6,1-1.2,1h-1.9c-0.7,0-1.3-0.6-1.2-1.4c0.5-3.6,3.1-7,8.1-7     c3.1,0,5.8,1.5,7.1,4.1C37.5,41.6,37.3,44.4,35.7,46.5z M85.6,59.9c-0.8,0.5-1.1,1.5-0.9,2.4c0.6,2.5,1.5,4.8,2.9,6.8     c0.1,0.1,0.1,0.3,0,0.4c0,0-0.4,0.2-0.4,0.2c-2.9-0.9-6.1-2.7-9.4-5.4c-0.4-0.3-0.9-0.5-1.4-0.5c-0.1,0-0.3,0-0.4,0     c-1.6,0.3-3.2,0.4-4.8,0.4c-7.5,0-14.2-2.9-18.2-7.4c1.8-2.9,2.8-6.1,2.8-9.5s-1-6.7-2.8-9.5c4-4.5,10.6-7.4,18.2-7.4     c12.1,0,22,7.6,22,16.9C93,52,90.3,56.6,85.6,59.9z"/></g></g></g></svg>