<?xml version="1.0" encoding="utf-8"?>
<!-- Generator: Adobe Illustrator 23.0.3, SVG Export Plug-In . SVG Version: 6.00 Build 0)  -->
<svg version="1.1" id="Layer_1" xmlns="http://www.w3.org/2000/svg" xmlns:xlink="http://www.w3.org/1999/xlink" x="0px" y="0px"
	 width="48px" height="48px" viewBox="0 0 48 48" enable-background="new 0 0 48 48" xml:space="preserve">
<g>
	<rect x="2" y="32" width="11" height="11"/>
</g>
<g>
	<rect x="19" y="32" width="11" height="11"/>
</g>
<g>
	<rect x="35" y="32" width="11" height="11"/>
</g>
<g>
	<path d="M15.32,16.2c0.4,0.34,0.72,0.74,0.95,1.2c0.24,0.46,0.35,1.06,0.35,1.82c0,0.85-0.17,1.65-0.51,2.39
		c-0.34,0.74-0.86,1.38-1.56,1.9c-0.68,0.51-1.49,0.91-2.41,1.18c-0.92,0.27-2.04,0.41-3.36,0.41c-1.51,0-2.8-0.12-3.88-0.35
		c-1.08-0.24-1.96-0.5-2.63-0.79v-3.99h0.48c0.7,0.42,1.54,0.79,2.51,1.1c0.97,0.31,1.86,0.46,2.67,0.46c0.47,0,0.98-0.04,1.54-0.12
		c0.55-0.08,1.02-0.25,1.4-0.51c0.3-0.2,0.54-0.45,0.72-0.74c0.18-0.29,0.27-0.71,0.27-1.25c0-0.53-0.12-0.94-0.37-1.23
		c-0.24-0.29-0.57-0.49-0.96-0.62c-0.4-0.13-0.88-0.2-1.44-0.21c-0.56-0.01-1.08-0.02-1.56-0.02h-1v-3.25h1.04
		c0.63,0,1.2-0.02,1.68-0.06c0.49-0.04,0.9-0.13,1.25-0.28c0.36-0.15,0.63-0.36,0.81-0.62c0.18-0.26,0.27-0.63,0.27-1.13
		c0-0.37-0.09-0.66-0.28-0.89c-0.19-0.22-0.42-0.4-0.71-0.53c-0.32-0.15-0.69-0.24-1.12-0.29c-0.43-0.05-0.8-0.07-1.11-0.07
		c-0.77,0-1.6,0.13-2.49,0.4c-0.9,0.26-1.76,0.65-2.6,1.14H2.81V7.31c0.67-0.27,1.57-0.53,2.72-0.78c1.15-0.25,2.31-0.37,3.49-0.37
		c1.15,0,2.15,0.1,3.02,0.3c0.86,0.2,1.57,0.47,2.14,0.8c0.67,0.4,1.16,0.88,1.49,1.45c0.33,0.57,0.49,1.24,0.49,2
		c0,1.01-0.31,1.91-0.94,2.7c-0.63,0.79-1.45,1.3-2.48,1.52v0.17c0.42,0.06,0.85,0.17,1.32,0.34S14.94,15.87,15.32,16.2z"/>
</g>
<g>
	<path d="M28.04,24.72h-4.41V5.72h4.41V24.72z"/>
	<path d="M36.34,24.72h-4.41V5.72h4.41V24.72z"/>
	<path d="M44.63,24.72h-4.41V5.72h4.41V24.72z"/>
</g>
</svg>
