<?xml version="1.0" encoding="utf-8"?>
<!-- Generator: Adobe Illustrator 23.0.6, SVG Export Plug-In . SVG Version: 6.00 Build 0)  -->
<svg version="1.1" id="Layer_1" xmlns="http://www.w3.org/2000/svg" xmlns:xlink="http://www.w3.org/1999/xlink" x="0px" y="0px"
	 viewBox="0 0 48 48" enable-background="new 0 0 48 48" xml:space="preserve">
<path d="M20.853,45h-6.994l1.338-34.2h4.319L20.853,45z M28.275,14.153c-0.39-0.903-0.928-1.697-1.615-2.384
	c-1.036-1.036-2.215-1.559-3.538-1.569L11,10.199V11.4l-4.2,0.015V4.2h4.8l0.016,1.2L23.06,5.401
	c1.569,0.01,2.805,0.467,3.707,1.369C28.285,8.287,28.787,10.748,28.275,14.153z M20,5.4h-5.4V4.2H20V5.4z"/>
<rect x="33.8" y="25.2" width="5.4" height="19.2"/>
<line fill="none" stroke="#000000" stroke-width="5" x1="36.5" y1="25.8" x2="36.5" y2="10.8"/>
<polygon points="37.4,4.8 35.6,4.8 35,10.8 38,10.8 "/>
</svg>
