<svg fill="#000000" xmlns="http://www.w3.org/2000/svg" xmlns:xlink="http://www.w3.org/1999/xlink" version="1.1" x="0px" y="0px" viewBox="0 0 100 100" enable-background="new 0 0 100 100" xml:space="preserve"><g><path d="M17.923,48.674l-3.677-1.925c-1.218-0.64-2.453-0.657-3.391-0.051c-0.939,0.608-1.474,1.774-1.474,3.205l0.205,39.836   c-0.005,0.523-1.153,2.059,0.697,2.059c1.85,0,0.698-1.535,0.698-2.059l0.205-38.984c0-0.759,0.225-1.341,0.617-1.592   c0.392-0.254,0.987-0.206,1.631,0.132l3.345,1.779c0.632,0.33,1.399,0.066,1.715-0.599C18.812,49.811,18.556,49.007,17.923,48.674z   "/><path d="M69.161,18.756c1.818,0,2.022-1.235,2.022-1.765c0-0.593-0.635-0.891-1.879-0.891c-1.569,0-1.692,0.458-1.692,1.104   C67.612,18.021,67.73,18.756,69.161,18.756z"/><path d="M67.329,15.856c0.654-0.165,1.519-0.171,1.849-0.171h0.021c0.034,0,0.05,0.008,0.05,0.008l0.056-0.008   c0.299,0,0.572,0.024,0.816,0.056l0.012,0.096l0.018-0.086c0.167,0.023,0.324,0.06,0.462,0.102   c0.077,0.024,0.153,0.047,0.236,0.068c0.37,0.111,0.75,0.225,1.25,0.225c0.505,0,0.888-0.113,1.258-0.225   c0.077-0.021,0.154-0.044,0.239-0.07c0.137-0.04,0.297-0.076,0.459-0.1l0.024-0.01c0.247-0.031,0.524-0.056,0.825-0.056   l0.067,0.005l0.056-0.005c0.32,0,1.18,0.006,1.832,0.17c0.63-0.209,0.93-0.219,1.045-0.118c-0.592-2.853-2.252-4.869-5.765-4.869   c-3.452,0-5.177,2.094-5.778,5.03C66.598,15.812,67.208,16.129,67.329,15.856z"/><path d="M75.049,18.756c1.424,0,1.542-0.735,1.542-1.552c0-0.646-0.118-1.104-1.687-1.104c-1.256,0-1.883,0.298-1.883,0.891   C73.021,17.521,73.22,18.756,75.049,18.756z"/><path d="M66.403,27.506c-0.498,0.096-0.991,0.201-1.479,0.32c-3.174,0.788-5.431,3.379-5.965,6.405l-3.457,8.159l0.421-7.979   c0.247-4.709-3.018-8.991-7.778-9.875c-1.691-0.312-3.416-0.523-5.164-0.652c-0.096,0.097-0.187,0.201-0.288,0.289   c-0.977,0.889-2.166,1.404-3.454,1.404c-1.328,0-2.56-0.558-3.553-1.495c-0.056-0.052-0.105-0.113-0.161-0.168   c-1.602,0.132-3.182,0.336-4.731,0.622c-4.762,0.884-6.097,4.927-7.777,9.875l-2.287,5.595l-10.257,1.731l0.579,4.261l13.052-1.169   l1.458-2.912l3.215-6.623h1.444l-0.641,22.386h3.979l2.688,33.535h2.438h3.463l2.434-33.535h3.985l0.15-22.386h1.441v19.481h0.094   h4.305h0.29l0.03-0.579l9.371-16.923C67.052,34.357,66.412,27.572,66.403,27.506z"/><path d="M80.04,37.274l4.462,16.647h4.305l-3.471-19.69c-0.534-3.026-2.793-5.617-5.971-6.405c-0.488-0.119-0.985-0.225-1.479-0.32   C77.882,27.572,77.236,34.357,80.04,37.274z"/><path d="M66.041,43.966c-4.118,6.125-6.525,25.967-6.525,33.901h7.486l2.258,13.349h5.771l2.261-13.349h7.483   c0-7.935-2.406-27.776-6.522-33.901H66.041z"/><path d="M70.33,27.003c-0.67,0.043-1.335,0.104-1.993,0.188l-0.002,0.072l-0.007,0.065c0,3.657,1.707,6.622,3.812,6.622   s3.812-2.965,3.812-6.622l-0.014-0.144c-0.646-0.083-1.3-0.143-1.958-0.184c-0.58,0.239-1.197,0.368-1.841,0.368   C71.509,27.37,70.902,27.235,70.33,27.003z"/><path d="M77.95,15.979c-0.107,0.415-0.744,1.142-0.744,1.464c0,0.083-0.012,0.165-0.016,0.247   c-0.007-0.175-0.007-0.352-0.018-0.523c-0.066,0.166-0.145,0.398-0.231,0.719c-0.16,0.871-0.77,1.28-1.893,1.28   c-0.86,0-1.544-0.269-1.964-0.76c-0.282-0.323-0.395-0.642-0.476-0.896c-0.123-0.357-0.189-0.518-0.511-0.518   c-0.318,0-0.385,0.16-0.505,0.518c-0.084,0.255-0.197,0.573-0.471,0.896c-0.431,0.491-1.108,0.76-1.962,0.76   c-1.138,0-1.735-0.409-1.903-1.288c-0.082-0.312-0.162-0.535-0.225-0.705c-0.008,0.139-0.013,0.284-0.018,0.428   c0.004-0.057,0.003-0.111-0.027-0.157c-0.416-0.617-0.619-0.996-0.69-1.228c-0.132,0.757-0.195,1.562-0.195,2.401   c0,1.886,0.523,3.614,1.394,4.96c0.152,0.233,0.318,0.455,0.494,0.664c0.018,0.022,0.033,0.045,0.058,0.07   c0.164,0.198,0.352,0.39,0.535,0.562c0.523,0.493,1.114,0.873,1.747,1.13c0.572,0.232,1.179,0.367,1.81,0.367   c0.644,0,1.261-0.129,1.841-0.368c0.581-0.24,1.123-0.592,1.615-1.037c0.197-0.173,0.382-0.364,0.561-0.565   c0.016-0.022,0.033-0.043,0.049-0.06c0.173-0.208,0.339-0.428,0.497-0.649c0.911-1.364,1.472-3.134,1.472-5.074   C78.174,17.688,78.102,16.803,77.95,15.979z"/><path d="M77.904,15.737c0.017,0.079,0.03,0.16,0.046,0.241C77.977,15.873,77.966,15.79,77.904,15.737z"/><path d="M66.298,16.215c0.019-0.106,0.042-0.211,0.063-0.316C66.273,15.931,66.238,16.021,66.298,16.215z"/><path d="M67.016,17.6c-0.002,0.066-0.006,0.131-0.008,0.197C67.002,17.733,67.012,17.665,67.016,17.6z"/><path d="M42.148,16.965c1.422,0,1.543-0.735,1.543-1.553c0-0.644-0.121-1.104-1.691-1.104c-1.25,0-1.879,0.3-1.879,0.891   C40.121,15.729,40.318,16.965,42.148,16.965z"/><path d="M36.261,16.965c1.819,0,2.022-1.236,2.022-1.766c0-0.591-0.635-0.891-1.879-0.891c-1.568,0-1.69,0.46-1.69,1.104   C34.714,16.229,34.83,16.965,36.261,16.965z"/><path d="M34.432,14.065c0.649-0.165,1.517-0.169,1.847-0.169H36.3c0.031,0,0.049,0.006,0.049,0.006l0.056-0.006   c0.3,0,0.574,0.022,0.817,0.054l0.013,0.097l0.016-0.087c0.168,0.023,0.323,0.06,0.463,0.102c0.076,0.024,0.156,0.047,0.235,0.068   c0.37,0.111,0.752,0.228,1.249,0.228c0.508,0,0.885-0.116,1.26-0.228c0.076-0.021,0.153-0.044,0.238-0.07   c0.137-0.04,0.297-0.076,0.458-0.1l0.025-0.01c0.247-0.031,0.524-0.054,0.821-0.054l0.073,0.001l0.053-0.001   c0.323,0,1.185,0.004,1.835,0.166c0.626-0.207,0.927-0.218,1.044-0.119c-0.594-2.851-2.255-4.867-5.767-4.867   c-3.451,0-5.176,2.094-5.776,5.03C33.698,14.02,34.31,14.337,34.432,14.065z"/><path d="M45.051,14.19c-0.11,0.416-0.745,1.14-0.745,1.461c0,0.084-0.009,0.165-0.017,0.244c-0.006-0.172-0.006-0.351-0.02-0.521   c-0.064,0.166-0.14,0.399-0.229,0.719c-0.161,0.871-0.77,1.279-1.893,1.279c-0.859,0-1.544-0.268-1.964-0.762   c-0.28-0.32-0.393-0.638-0.477-0.894c-0.121-0.356-0.187-0.517-0.511-0.517c-0.318,0-0.384,0.16-0.505,0.517   c-0.082,0.256-0.191,0.573-0.47,0.894c-0.429,0.494-1.107,0.762-1.962,0.762c-1.135,0-1.734-0.408-1.903-1.287   c-0.082-0.312-0.161-0.537-0.226-0.705c-0.007,0.139-0.011,0.285-0.015,0.431c0.003-0.058,0.002-0.113-0.028-0.16   c-0.416-0.618-0.619-0.997-0.69-1.229c-0.132,0.757-0.195,1.563-0.195,2.402c0,1.885,0.525,3.617,1.393,4.96   c0.152,0.232,0.319,0.454,0.491,0.661c0.025,0.025,0.039,0.049,0.06,0.074c0.117,0.139,0.249,0.266,0.378,0.395   c0.056,0.055,0.105,0.116,0.161,0.168c0.993,0.938,2.225,1.495,3.553,1.495c1.288,0,2.478-0.516,3.454-1.404   c0.102-0.088,0.192-0.192,0.288-0.289c0.092-0.093,0.188-0.178,0.276-0.276c0.015-0.021,0.028-0.043,0.045-0.061   c0.178-0.206,0.341-0.426,0.501-0.648c0.914-1.363,1.472-3.133,1.472-5.074C45.274,15.898,45.202,15.015,45.051,14.19z"/><path d="M44.497,20.704C44.724,20.257,44.789,20.049,44.497,20.704L44.497,20.704z"/><path d="M34.163,21.167C34.6,21.757,34.114,21.076,34.163,21.167L34.163,21.167z"/><path d="M33.398,14.423c0.019-0.107,0.042-0.211,0.063-0.316C33.374,14.14,33.339,14.229,33.398,14.423z"/><path d="M45.005,13.943c0.017,0.081,0.03,0.165,0.046,0.247C45.079,14.082,45.068,13.997,45.005,13.943z"/><path d="M34.117,15.812c-0.002,0.065-0.005,0.13-0.007,0.195C34.104,15.944,34.113,15.877,34.117,15.812z"/><path d="M72.117,10.395c1.743,0,3.121,0.717,4.308,1.748h0.327c0-1.37-1.958-4.243-4.565-4.243c-2.602,0-4.704,2.873-4.704,4.243   h0.354C68.681,11.366,70.368,10.395,72.117,10.395z"/></g></svg>